<svg xmlns:xlink="http://www.w3.org/1999/xlink" xmlns="http://www.w3.org/2000/svg" viewBox="-270 148.3 300 300" width="100"  height="100" ><path class="action-svg" d="M-102.8 425.5c-5.7 0-11.3-2.2-15.6-6.5l-113.1-113.1c-7.3-7.3-11.3-17.4-11.1-27.7l1.2-50.5c.2-9.8 4.2-19 11.1-26l6.8-6.8c6.9-6.9 16.2-10.9 26-11.1l50.5-1.2c10.2-.3 20.4 3.8 27.7 11.1L-6.2 306.8c8.6 8.6 8.6 22.7 0 31.3L-87.1 419c-4.3 4.3-10 6.5-15.7 6.5zm-43.3-225.8h-.5l-50.5 1.2c-5.4.1-10.4 2.3-14.2 6.1l-6.9 6.8c-3.8 3.8-6 8.9-6.1 14.2l-1.2 50.5c-.1 5.7 2.1 11.2 6.1 15.2l113.1 113.1c1.9 1.9 5.1 1.9 7 0l80.9-80.9c1.9-1.9 1.9-5.1 0-7l-113.1-113.1c-3.8-3.9-9.1-6.1-14.6-6.1z" fill="#A7AEB0"></path><path class="action-svg" d="M-179.4 271.1c-6.7 0-13.1-2.6-17.8-7.4-4.8-4.7-7.4-11.1-7.4-17.8s2.6-13.1 7.4-17.8c9.8-9.8 25.8-9.8 35.6 0s9.8 25.8 0 35.6c-4.7 4.7-11 7.4-17.8 7.4zm0-33.3c-2.1 0-4.1.8-5.7 2.4-1.5 1.5-2.4 3.5-2.4 5.7s.8 4.2 2.4 5.7c3.1 3.1 8.3 3.1 11.4 0 3.1-3.1 3.1-8.3 0-11.4-1.5-1.6-3.6-2.4-5.7-2.4zm40.8 116.6c-2.2 0-4.4-.8-6.1-2.5-3.3-3.3-3.3-8.8 0-12.1l59.2-59.2c3.3-3.3 8.8-3.3 12.1 0 3.3 3.3 3.3 8.8 0 12.1l-59.2 59.2c-1.7 1.6-3.9 2.5-6 2.5zm20.3 20.3c-2.2 0-4.4-.8-6.1-2.5-3.3-3.3-3.3-8.8 0-12.1l59.2-59.2c3.3-3.3 8.8-3.3 12.1 0 3.3 3.3 3.3 8.8 0 12.1l-59.2 59.2c-1.6 1.6-3.8 2.5-6 2.5z" fill="#A7AEB0"></path><path class="action-svg" d="M-54.9 276.8c-4.2 0-7.9-3.1-8.5-7.4-.6-4.7 2.6-9 7.3-9.7 10.5-1.5 19.9-3.7 27.8-6.5 15.1-5.5 19.1-11.3 19.1-13.6 0-2.3-4-8.1-19.1-13.6-31.3-11.4-82.2-11.4-113.4 0-12.9 4.7-18.3 9.9-19 13-.3 1.4.5 3.1 2.5 5.1 3.3 3.3 3.4 8.8 0 12.1-3.3 3.3-8.8 3.4-12.1 0-6.2-6.2-8.8-13.6-7.2-20.9 1.6-7.2 8.1-17.5 29.9-25.4 35.1-12.7 90-12.7 125.1 0C2.7 218.9 8 231 8 239.5s-5.3 20.6-30.4 29.7c-9.1 3.3-19.6 5.8-31.3 7.4-.4.1-.8.2-1.2.2z" fill="#A7AEB0"></path></svg>