<svg xmlns:xlink="http://www.w3.org/1999/xlink" xmlns="http://www.w3.org/2000/svg" viewBox="0 0 300 300" width="300"  height="300" ><g fill="#A7AEB0"><path class="analyze-svg" d="M75.4 228.1c-17.1 0-31-13.9-31-31V29.4c0-4.7 3.8-8.6 8.6-8.6h44.9c4.7 0 8.6 3.8 8.6 8.6v167.7c-.1 17.1-14 31-31.1 31zM61.5 37.9V197c0 7.7 6.2 13.9 13.9 13.9s13.9-6.2 13.9-13.9V37.9H61.5z" fill="#A7AEB0"></path><path class="analyze-svg" d="M103.2 37.9H47.5c-4.7 0-8.6-3.8-8.6-8.6s3.8-8.6 8.6-8.6h55.7c4.7 0 8.6 3.8 8.6 8.6s-3.9 8.6-8.6 8.6z" fill="#A7AEB0"></path><path class="analyze-svg" d="M91.2 161.1H59.5c-4.7 0-8.6-3.8-8.6-8.6s3.8-8.6 8.6-8.6h31.8c4.7 0 8.6 3.8 8.6 8.6s-3.9 8.6-8.7 8.6z" fill="#A7AEB0"></path><path class="analyze-svg" d="M150 228.1c-17.1 0-31-13.9-31-31V29.4c0-4.7 3.8-8.6 8.6-8.6h44.9c4.7 0 8.6 3.8 8.6 8.6v167.7c-.1 17.1-14 31-31.1 31zM136.1 37.9V197c0 7.7 6.2 13.9 13.9 13.9s13.9-6.2 13.9-13.9V37.9h-27.8z" fill="#A7AEB0"></path><path class="analyze-svg" d="M177.8 37.9h-55.7c-4.7 0-8.6-3.8-8.6-8.6s3.8-8.6 8.6-8.6h55.7c4.7 0 8.6 3.8 8.6 8.6s-3.8 8.6-8.6 8.6z" fill="#A7AEB0"></path><path class="analyze-svg" d="M165.9 152.3h-31.8c-4.7 0-8.6-3.8-8.6-8.6 0-4.7 3.8-8.6 8.6-8.6h31.8c4.7 0 8.6 3.8 8.6 8.6s-3.9 8.6-8.6 8.6z" fill="#A7AEB0"></path><path class="analyze-svg" d="M224.6 228.1c-17.1 0-31-13.9-31-31V29.4c0-4.7 3.8-8.6 8.6-8.6h44.9c4.7 0 8.6 3.8 8.6 8.6v167.7c0 17.1-13.9 31-31.1 31zM210.8 37.9V197c0 7.7 6.2 13.9 13.9 13.9s13.9-6.2 13.9-13.9V37.9h-27.8z" fill="#A7AEB0"></path><path class="analyze-svg" d="M252.5 37.9h-55.7c-4.7 0-8.6-3.8-8.6-8.6s3.8-8.6 8.6-8.6h55.7c4.7 0 8.6 3.8 8.6 8.6s-3.9 8.6-8.6 8.6z" fill="#A7AEB0"></path><path class="analyze-svg" d="M240.5 158.9h-31.8c-4.7 0-8.6-3.8-8.6-8.6s3.8-8.6 8.6-8.6h31.8c4.7 0 8.6 3.8 8.6 8.6s-3.8 8.6-8.6 8.6z" fill="#A7AEB0"></path><path class="analyze-svg" d="M275.8 279.3H24.2c-4.7 0-8.6-3.8-8.6-8.6V106.1c0-4.7 3.8-8.6 8.6-8.6h251.6c4.7 0 8.6 3.8 8.6 8.6v164.7c0 4.7-3.8 8.5-8.6 8.5zM32.7 262.2h234.5V114.6H32.7v147.6z" fill="#A7AEB0"></path></g><path fill="none" d="M-1545-117h28v52h-28z"></path></svg>