<svg xmlns:xlink="http://www.w3.org/1999/xlink" xmlns="http://www.w3.org/2000/svg" viewBox="0 0 300 300" width="300"  height="300" ><g fill="#A7AEB0"><path class="clinic-svg" d="M273.5 291.4h-247c-4.7 0-8.6-3.8-8.6-8.6v-203c0-4.7 3.8-8.6 8.6-8.6h44.3c4.7 0 8.6 3.8 8.6 8.6s-3.8 8.6-8.6 8.6H35.1v185.8H265V88.5h-35.8c-4.7 0-8.6-3.8-8.6-8.6s3.8-8.6 8.6-8.6h44.3c4.7 0 8.6 3.8 8.6 8.6v203c0 4.7-3.9 8.5-8.6 8.5z" fill="#A7AEB0"></path><path class="clinic-svg" d="M229.2 117.4H70.8c-4.7 0-8.6-3.8-8.6-8.6V17.3c0-4.7 3.8-8.6 8.6-8.6h158.4c4.7 0 8.6 3.8 8.6 8.6v91.5c-.1 4.7-3.9 8.6-8.6 8.6zM79.4 100.2h141.2V25.9H79.4v74.3z" fill="#A7AEB0"></path><path class="clinic-svg" d="M70.8 161.4c-4.7 0-8.6-3.8-8.6-8.6v-8.7c0-4.7 3.8-8.6 8.6-8.6 4.7 0 8.6 3.8 8.6 8.6v8.7c0 4.7-3.9 8.6-8.6 8.6z" fill="#A7AEB0"></path><path class="clinic-svg" d="M110.5 161.4c-4.7 0-8.6-3.8-8.6-8.6v-8.7c0-4.7 3.8-8.6 8.6-8.6 4.7 0 8.6 3.8 8.6 8.6v8.7c-.1 4.7-3.9 8.6-8.6 8.6z" fill="#A7AEB0"></path><path class="clinic-svg" d="M150.1 161.4c-4.7 0-8.6-3.8-8.6-8.6v-8.7c0-4.7 3.8-8.6 8.6-8.6s8.6 3.8 8.6 8.6v8.7c0 4.7-3.9 8.6-8.6 8.6z" fill="#A7AEB0"></path><path class="clinic-svg" d="M189.8 161.4c-4.7 0-8.6-3.8-8.6-8.6v-8.7c0-4.7 3.8-8.6 8.6-8.6 4.7 0 8.6 3.8 8.6 8.6v8.7c-.1 4.7-3.9 8.6-8.6 8.6z" fill="#A7AEB0"></path><path class="clinic-svg" d="M189.8 205.2c-4.7 0-8.6-3.8-8.6-8.6V188c0-4.7 3.8-8.6 8.6-8.6 4.7 0 8.6 3.8 8.6 8.6v8.7c-.1 4.7-3.9 8.5-8.6 8.5z" fill="#A7AEB0"></path><path class="clinic-svg" d="M70.8 249.1c-4.7 0-8.6-3.8-8.6-8.6v-8.8c0-4.7 3.8-8.6 8.6-8.6 4.7 0 8.6 3.8 8.6 8.6v8.8c0 4.8-3.9 8.6-8.6 8.6z" fill="#A7AEB0"></path><path class="clinic-svg" d="M110.5 249.1c-4.7 0-8.6-3.8-8.6-8.6v-8.8c0-4.7 3.8-8.6 8.6-8.6 4.7 0 8.6 3.8 8.6 8.6v8.8c-.1 4.8-3.9 8.6-8.6 8.6z" fill="#A7AEB0"></path><path class="clinic-svg" d="M150.1 249.1c-4.7 0-8.6-3.8-8.6-8.6v-8.8c0-4.7 3.8-8.6 8.6-8.6s8.6 3.8 8.6 8.6v8.8c0 4.8-3.9 8.6-8.6 8.6z" fill="#A7AEB0"></path><path class="clinic-svg" d="M229.2 161.2c-4.7 0-8.6-3.8-8.6-8.6V144c0-4.7 3.8-8.6 8.6-8.6s8.6 3.8 8.6 8.6v8.7c0 4.7-3.9 8.5-8.6 8.5z" fill="#A7AEB0"></path><path class="clinic-svg" d="M70.8 205.3c-4.7 0-8.6-3.8-8.6-8.6v-8.8c0-4.7 3.8-8.6 8.6-8.6 4.7 0 8.6 3.8 8.6 8.6v8.8c0 4.8-3.9 8.6-8.6 8.6z" fill="#A7AEB0"></path><path class="clinic-svg" d="M229.2 205.3c-4.7 0-8.6-3.8-8.6-8.6v-8.8c0-4.7 3.8-8.6 8.6-8.6 4.7 0 8.6 3.8 8.6 8.6v8.8c-.1 4.8-3.9 8.6-8.6 8.6z" fill="#A7AEB0"></path><path class="clinic-svg" d="M189.8 249c-4.7 0-8.6-3.8-8.6-8.6v-8.7c0-4.7 3.8-8.6 8.6-8.6 4.7 0 8.6 3.8 8.6 8.6v8.7c-.1 4.8-3.9 8.6-8.6 8.6z" fill="#A7AEB0"></path><path class="clinic-svg" d="M229.2 249.1c-4.7 0-8.6-3.8-8.6-8.6v-8.8c0-4.7 3.8-8.6 8.6-8.6 4.7 0 8.6 3.8 8.6 8.6v8.8c-.1 4.8-3.9 8.6-8.6 8.6z" fill="#A7AEB0"></path><path class="clinic-svg" d="M149.9 205.3c-4.7 0-8.6-3.8-8.6-8.6v-8.8c0-4.7 3.8-8.6 8.6-8.6 4.7 0 8.6 3.8 8.6 8.6v8.8c0 4.8-3.9 8.6-8.6 8.6z" fill="#A7AEB0"></path><path class="clinic-svg" d="M110.2 205.3c-4.7 0-8.6-3.8-8.6-8.6v-8.8c0-4.7 3.8-8.6 8.6-8.6 4.7 0 8.6 3.8 8.6 8.6v8.8c0 4.8-3.8 8.6-8.6 8.6z" fill="#A7AEB0"></path><g fill="#A7AEB0"><path class="clinic-svg" d="M150.1 91.4c-4.7 0-8.6-3.8-8.6-8.6V43c0-4.7 3.8-8.6 8.6-8.6s8.6 3.8 8.6 8.6v39.8c0 4.7-3.9 8.6-8.6 8.6z" fill="#A7AEB0"></path><path class="clinic-svg" d="M170 71.5h-39.8c-4.7 0-8.6-3.8-8.6-8.6s3.8-8.6 8.6-8.6H170c4.7 0 8.6 3.8 8.6 8.6s-3.8 8.6-8.6 8.6z" fill="#A7AEB0"></path></g></g></svg>