<svg xmlns:xlink="http://www.w3.org/1999/xlink" xmlns="http://www.w3.org/2000/svg" viewBox="0 0 300 300" width="300"  height="300" ><path class="diagnost-svg" d="M211.3 268.3H93.1c-4.7 0-8.6-3.8-8.6-8.6 0-4.7 3.8-8.6 8.6-8.6h20.8v-26.4H24.2c-4.7 0-8.6-3.8-8.6-8.6V40.4c0-4.7 3.8-8.6 8.6-8.6h251.6c4.7 0 8.6 3.8 8.6 8.6v175.9c0 4.7-3.8 8.6-8.6 8.6h-85.3v26.4h20.8c4.7 0 8.6 3.8 8.6 8.6 0 4.6-3.8 8.4-8.6 8.4zM131 251.2h42.5v-26.4H131v26.4zm-98.3-43.5h234.5V48.9H32.7v158.8zm111-11.9c-3.8 0-7.2-2.5-8.2-6.2-6.7-23-11.8-44.1-17-66.9l-14.8 59.9c-.9 3.7-4.1 6.3-7.9 6.5-3.8.3-7.2-2.2-8.5-5.8L77.9 156H52.3c-4.7 0-8.6-3.8-8.6-8.6 0-4.7 3.8-8.6 8.6-8.6h31.6c3.7 0 6.9 2.3 8.1 5.8l1.9 5.6 16.5-66.7c.9-3.8 4.4-6.5 8.3-6.5h.1c4 0 7.4 2.8 8.3 6.7l3.7 16.4c4.4 19.2 8.4 36.8 12.8 54.5l2.6-9.5c1-3.7 4.4-6.3 8.3-6.3H165L176.5 71c.7-4.1 4.3-7.1 8.4-7.1h.1c4.2 0 7.8 3.2 8.4 7.3l9.8 67.7H240c4.7 0 8.6 3.8 8.6 8.6 0 4.7-3.8 8.6-8.6 8.6h-44.2c-4.3 0-7.9-3.1-8.5-7.3l-3-20.9-3.5 21.1c-.7 4.1-4.3 7.1-8.4 7.1h-11.2l-9.2 33.4c-1.1 3.7-4.4 6.3-8.3 6.3z" fill="#A7AEB0"></path></svg>