<svg xmlns:xlink="http://www.w3.org/1999/xlink" xmlns="http://www.w3.org/2000/svg" viewBox="0 0 300 300" width="300"  height="300" ><g fill="#A7AEB0"><path class="doctor-svg" d="M150 89.3c-4.7 0-8.6-3.8-8.6-8.6V40.8c0-4.7 3.8-8.6 8.6-8.6 4.7 0 8.6 3.8 8.6 8.6v39.8c0 4.8-3.9 8.7-8.6 8.7z" fill="#A7AEB0"></path><path class="doctor-svg" d="M169.9 69.3h-39.8c-4.7 0-8.6-3.8-8.6-8.6s3.8-8.6 8.6-8.6h39.8c4.7 0 8.6 3.8 8.6 8.6s-3.8 8.6-8.6 8.6z" fill="#A7AEB0"></path><path class="doctor-svg" d="M205.7 79.7c-.3 0-.7 0-1-.1-4.7-.5-8.1-4.8-7.5-9.5l3.5-30.8c-5.6-4.2-26.9-13.2-50.7-13.2-23.7 0-45 9-50.7 13.2l3.5 30.8c.5 4.7-2.8 8.9-7.5 9.5-4.7.5-9-2.8-9.5-7.5L82 38.5c-.3-2.3.1-5.9 3.4-9.6C93.9 19.5 122.4 9 150 9c27.6 0 56.1 10.5 64.6 20 3.3 3.7 3.7 7.3 3.4 9.6l-3.8 33.5c-.6 4.3-4.3 7.6-8.5 7.6z" fill="#A7AEB0"></path><path class="doctor-svg" d="M277.1 291.1c-.4 0-.8 0-1.2-.1-4.7-.7-7.9-5-7.3-9.7l4.3-29.9v-4.6c0-5.7-9.3-10.3-18-11.8-9.7-1.7-38.3-7-55.8-13.5-10.1 31.1-28.1 49.3-49.3 49.3h-.1c-21.2 0-39.1-18.3-49.1-49.3C83.3 228 54.7 233.4 45 235c-8.7 1.5-18 6.2-18 11.8v4.6l4.3 29.9c.7 4.7-2.6 9-7.3 9.7-4.7.7-9-2.6-9.7-7.3L10 253.3c-.1-.4-.1-.8-.1-1.2v-5.2c0-17.1 17.3-26.1 32.2-28.7 23.3-4.1 50.6-10.4 59.1-15.5 1-.6 2.1-1 3.3-1.1 4.3-.6 9.1 2.1 10.2 6.3 6.9 27.8 20.7 45.8 35.2 45.9 14.5 0 28.4-18 35.5-45.9 1.1-4.2 5-6.9 9.4-6.4 1.2.1 3.1.6 4.1 1.2 8.6 5.1 35.8 11.5 59.1 15.5 14.8 2.6 32.2 11.7 32.2 28.7v5.2c0 .4 0 .8-.1 1.2l-4.4 30.5c-.7 4.3-4.4 7.3-8.6 7.3z" fill="#A7AEB0"></path><path class="doctor-svg" d="M233.3 291.1H195c-4.7 0-8.6-3.8-8.6-8.6 0-4.7 3.8-8.6 8.6-8.6h38.3c4.7 0 8.6 3.8 8.6 8.6-.1 4.8-3.9 8.6-8.6 8.6z" fill="#A7AEB0"></path><path class="doctor-svg" d="M150 212c-23.6 0-44.2-16.5-53.8-42.6-4.6-1-9-4.3-12.3-9.5-3.9-5.7-6.2-13.7-6.1-21.2-.1-10.4 4.3-18.1 11.7-20.8 0-1.1-.1-2.3-.1-3.6 0-13.3 2.6-21.8 8.2-26.5 5.3-5.4 15.1-8.8 31.9 4 1.5 1.2 2.9 2.3 4.1 3.3 5.5 4.5 7.4 6 16.7 6.1 9-.1 10.9-1.7 16.4-6.1 1.2-1 2.6-2.1 4.1-3.3 16.8-12.8 26.6-9.4 31.9-4 5.6 4.7 8.2 13.2 8.2 26.5 0 1.2 0 2.4-.1 3.6 7.3 2.7 11.8 10.5 11.7 21 .1 7.3-2.2 15.3-6.2 21.1-3.2 4.9-7.5 8.1-12.2 9.3-9.9 26.1-30.5 42.7-54.1 42.7zm-47.6-59.6c3.8 0 7.1 2.5 8.2 6.2 6.5 22.4 21.6 36.3 39.4 36.3s32.9-13.9 39.4-36.3c1.2-4.1 5.3-6.7 9.5-6.1l1.2.2c0-.1.8-.7 1.7-2.2 2.1-3.1 3.4-7.6 3.3-11.6 0-3.4-.7-4.9-.9-5.2-7.4-.2-11.2-5.8-10.7-16.4 0-.9.1-1.9.1-3 0-11.1-2.2-13.5-2.2-13.5-.4-.3-.7-.6-1-1 .1.2-2.4.3-9.3 5.6-1.4 1.1-2.6 2-3.7 3-7.4 6-12.7 9.8-27.2 10-14.8-.2-20-3.9-27.5-10-1.1-.9-2.3-1.9-3.7-3-7.1-5.5-9.6-5.4-9.8-5.3-.3.4-.2.5-.6.8 0 0-2.1 2.4-2.1 13.4 0 1 0 2 .1 3 .5 10.6-3.3 16.2-11.1 16.7.2 0-.6 1.6-.5 4.7 0 4.2 1.2 8.7 3.2 11.7 1.1 1.6 1.9 2.2 2.1 2.2l.9-.1c.3-.1.8-.1 1.2-.1z" fill="#A7AEB0"></path></g></svg>