<svg xmlns:xlink="http://www.w3.org/1999/xlink" xmlns="http://www.w3.org/2000/svg" id="Layer_1" viewBox="-420 222 118 118" width="100"  height="100" ><defs><linearGradient id="mp2_1" x1="-838.151" x2="-837.151" y1="565.028" y2="565.028" gradientUnits="userSpaceOnUse" gradientTransform="matrix(0 119.008 119.008 0 -67607.297 99968.39)"><stop offset="0" stop-color="#09859D"></stop><stop offset="1" stop-color="#2DDEC1"></stop></linearGradient><linearGradient id="mp2_1" x1="-838.151" x2="-837.151" y1="565.028" y2="565.028" gradientUnits="userSpaceOnUse" gradientTransform="matrix(0 119.008 119.008 0 -67607.297 99968.39)"><stop offset="0" stop-color="#09859D"></stop><stop offset="1" stop-color="#2DDEC1"></stop></linearGradient><linearGradient id="mp2_2" x1="-838.151" x2="-837.151" y1="565.029" y2="565.029" gradientUnits="userSpaceOnUse" gradientTransform="matrix(0 119.008 119.008 0 -67593.75 99968.39)"><stop offset="0" stop-color="#09859D"></stop><stop offset="1" stop-color="#2DDEC1"></stop></linearGradient></defs><style>.mp2_1{fill:url(#mp2_1);} .mp2_2{fill:url(#mp2_2);} .mp2_3{fill:url(#mp2_3);}</style><linearGradient id="mp2_1" x1="-838.151" x2="-837.151" y1="565.028" y2="565.028" gradientUnits="userSpaceOnUse" gradientTransform="matrix(0 119.008 119.008 0 -67607.297 99968.39)"><stop offset="0" stop-color="#09859D"></stop><stop offset="1" stop-color="#2DDEC1"></stop></linearGradient><path id="mp2_1" d="M-339.9 294.3c-4 0-7.6-.6-11-1.8-.9-.3-2.1 0-3.1.6l-6.7 6.7c-8.6-4.3-15.9-11.6-20.2-20.2l6.7-6.7c.9-.9 1.2-2.1.9-3.1-1.2-3.1-1.8-6.7-1.8-10.7 0-1.5-1.5-3.1-3.1-3.1h-10.7c-1.5 0-3.1 1.5-3.1 3.1 0 28.7 23.2 51.9 51.9 51.9 1.5 0 3.1-1.5 3.1-3.1v-10.7c.2-1.4-1.3-2.9-2.9-2.9z" class="mp2_1" fill="url(&quot;#mp2_1&quot;)"></path><linearGradient id="mp2_2" x1="-838.151" x2="-837.151" y1="565.029" y2="565.029" gradientUnits="userSpaceOnUse" gradientTransform="matrix(0 119.008 119.008 0 -67593.75 99968.39)"><stop offset="0" stop-color="#09859D"></stop><stop offset="1" stop-color="#2DDEC1"></stop></linearGradient><path id="mp2_2" d="M-364.5 256.1v30.6l9.2-9.2h18.3v-21.4h-27.5zm20.8 13.2h-4.6v4.6h-4.6v-4.6h-4.6v-4.9h4.6v-4.6h4.6v4.6h4.6v4.9z" class="mp2_2" fill="url(&quot;#mp2_2&quot;)"></path><linearGradient id="mp2_3" x1="-838.151" x2="-837.151" y1="565.029" y2="565.029" gradientUnits="userSpaceOnUse" gradientTransform="matrix(0 119.007 119.007 0 -67603.43 99967.547)"><stop offset="0" stop-color="#09859D"></stop><stop offset="1" stop-color="#2DDEC1"></stop></linearGradient><path id="mp2_3" d="M-361 222c-32.6 0-59 26.4-59 59s26.4 59 59 59 59-26.4 59-59-26.4-59-59-59zm0 113c-29.8 0-54-24.2-54-54s24.2-54 54-54 54 24.2 54 54-24.2 54-54 54z" class="mp2_3"></path></svg>