<svg xmlns:xlink="http://www.w3.org/1999/xlink" xmlns="http://www.w3.org/2000/svg" id="Layer_1" viewBox="-420 222 118 118" width="100"  height="100" ><defs><linearGradient id="mp3_1" x1="-836.452" x2="-835.452" y1="569.9" y2="569.9" gradientUnits="userSpaceOnUse" gradientTransform="matrix(0 62 50 0 -28856 52110)"><stop offset="0" stop-color="#09859D"></stop><stop offset="1" stop-color="#2DDEC1"></stop></linearGradient><linearGradient id="mp3_1" x1="-836.452" x2="-835.452" y1="569.9" y2="569.9" gradientUnits="userSpaceOnUse" gradientTransform="matrix(0 62 50 0 -28856 52110)"><stop offset="0" stop-color="#09859D"></stop><stop offset="1" stop-color="#2DDEC1"></stop></linearGradient></defs><style>.mp3_1{fill:url(#mp3_1);} .mp3_2{fill:url(#mp3_2);}</style><linearGradient id="mp3_1" x1="-836.452" x2="-835.452" y1="569.9" y2="569.9" gradientUnits="userSpaceOnUse" gradientTransform="matrix(0 62 50 0 -28856 52110)"><stop offset="0" stop-color="#09859D"></stop><stop offset="1" stop-color="#2DDEC1"></stop></linearGradient><path id="mp3_1" d="M-361 250l-25 11.3v16.9c0 15.5 10.6 30.2 25 33.8 14.4-3.7 25-18.3 25-33.8v-16.9l-25-11.3zm2.8 45.1h-5.6v-16.9h5.6v16.9zm0-22.6h-5.6v-5.6h5.6v5.6z" class="mp3_1" fill="url(&quot;#mp3_1&quot;)"></path><linearGradient id="mp3_2" x1="-838.151" x2="-837.151" y1="565.029" y2="565.029" gradientUnits="userSpaceOnUse" gradientTransform="matrix(0 119.007 119.007 0 -67603.43 99967.547)"><stop offset="0" stop-color="#09859D"></stop><stop offset="1" stop-color="#2DDEC1"></stop></linearGradient><path id="mp3_2" d="M-361 222c-32.6 0-59 26.4-59 59s26.4 59 59 59 59-26.4 59-59-26.4-59-59-59zm0 113c-29.8 0-54-24.2-54-54s24.2-54 54-54 54 24.2 54 54-24.2 54-54 54z" class="mp3_2"></path></svg>