<svg xmlns:xlink="http://www.w3.org/1999/xlink" class="i--user" viewBox="0 0 26 27" fill="none" xmlns="http://www.w3.org/2000/svg" width="26"  height="27" >
<mask maskUnits="userSpaceOnUse" x="0" y="-0.36377" width="26" height="27">
<path d="M20 7.54526C20 7.05326 19.946 6.55324 19.839 6.05927C19.7799 5.78927 19.5129 5.61527 19.244 5.67626C18.974 5.73527 18.941 6.00119 19 6.27119C19.092 6.69518 19 7.30606 19 7.7271C19 8.1171 18.9499 8.34326 18.843 8.82827C18.8229 8.91729 18.828 9.00926 18.857 9.09429C18.951 9.37423 19 9.70324 19 10.0452C19 11.0122 18.638 11.5372 18.468 11.5222C18.332 11.4382 18.164 11.4232 18.016 11.4832C17.868 11.5432 17.758 11.6712 17.719 11.8262C17.019 14.6493 15.123 16.5453 13 16.5453C10.877 16.5453 8.98097 14.6493 8.28098 11.8263C8.24198 11.6712 8.11598 11.5553 7.968 11.4953C7.81898 11.4333 7.63598 11.4603 7.5 11.5453C7.37498 11.5452 6.99998 11.0133 6.99998 10.0452C6.99998 9.70324 7.04897 9.37423 7.143 9.09523C7.17201 9.00921 7.17698 8.91724 7.15701 8.82921C7.05 8.34321 7.00003 7.93521 7.00003 7.54521C7.00003 7.12422 6.90698 6.69522 6.99998 6.27119C7.05797 6.00119 7.02703 5.73518 6.75703 5.67621C6.48905 5.61621 6.22101 5.78922 6.16205 6.05922C6.05405 6.55324 6.00005 7.05321 6.00005 7.54521C6.00005 7.97323 6.04805 8.41019 6.15206 8.91321C6.05208 9.26023 6.00005 9.64919 6.00005 10.0452C6.00005 11.4382 6.61603 12.4962 7.44103 12.5442C8.349 15.5553 10.537 17.5452 13 17.5452C15.463 17.5452 17.651 15.5553 18.559 12.5442C19.384 12.4962 20 11.4382 20 10.0452C20 9.64924 19.948 9.26023 19.848 8.91326C19.952 8.41024 20 7.97323 20 7.54526Z"></path>
<path d="M19.9939 7.05421L19.4119 3.56123C19.1289 1.86623 17.6769 0.63623 15.9589 0.63623H10.0419C8.32292 0.63623 6.87191 1.86623 6.58892 3.56123L6.00692 7.05421C5.97992 7.21321 6.03191 7.37522 6.14591 7.4902C6.14591 7.88787 6.45449 8.27259 7 8.27259C7.00002 7.72714 7.03395 7.7662 7.03995 7.4902C7.04595 7.2142 7 7.18169 7 7.18169C7 7.18169 7 7.05421 7.03995 6.93825L7.57494 3.72525C7.77692 2.51423 8.81394 1.63626 10.0419 1.63626H15.9579C17.1859 1.63626 18.2229 2.51428 18.4249 3.72426L19 7.18169C19.0401 7.42611 19.5455 7.72714 19.5455 7.72714C19.5455 7.93556 19.5455 7.95679 19.5455 8.27259C19.5455 8.27259 19.9939 8.05829 19.8539 7.4902C19.9689 7.37522 20.0199 7.21321 19.9939 7.05421Z"></path>
<path d="M20.635 19.3542L18.063 18.4593C17.875 18.3933 17.666 18.4463 17.53 18.5933C16.269 19.9693 14.66 20.7273 13 20.7273C11.34 20.7273 9.73098 19.9692 8.47 18.5922C8.33402 18.4452 8.125 18.3933 7.93698 18.4582L5.365 19.3532C2.67198 20.2892 1 22.5402 1 25.2272C1 25.5032 1.22402 25.7272 1.50002 25.7272H24.5C24.776 25.7272 25 25.5032 25 25.2272C25 22.5402 23.328 20.2902 20.635 19.3542ZM2.02398 24.7272C2.21697 22.7012 3.586 21.0312 5.69298 20.2983L7.96098 19.5093C9.379 20.9423 11.157 21.7272 13 21.7272C14.843 21.7272 16.621 20.9422 18.039 19.5093L20.307 20.2983C22.414 21.0312 23.783 22.7012 23.976 24.7272H2.02398Z"></path>
</mask>
<path d="M20 7.54526C20 7.05326 19.946 6.55324 19.839 6.05927C19.7799 5.78927 19.5129 5.61527 19.244 5.67626C18.974 5.73527 18.941 6.00119 19 6.27119C19.092 6.69518 19 7.30606 19 7.7271C19 8.1171 18.9499 8.34326 18.843 8.82827C18.8229 8.91729 18.828 9.00926 18.857 9.09429C18.951 9.37423 19 9.70324 19 10.0452C19 11.0122 18.638 11.5372 18.468 11.5222C18.332 11.4382 18.164 11.4232 18.016 11.4832C17.868 11.5432 17.758 11.6712 17.719 11.8262C17.019 14.6493 15.123 16.5453 13 16.5453C10.877 16.5453 8.98097 14.6493 8.28098 11.8263C8.24198 11.6712 8.11598 11.5553 7.968 11.4953C7.81898 11.4333 7.63598 11.4603 7.5 11.5453C7.37498 11.5452 6.99998 11.0133 6.99998 10.0452C6.99998 9.70324 7.04897 9.37423 7.143 9.09523C7.17201 9.00921 7.17698 8.91724 7.15701 8.82921C7.05 8.34321 7.00003 7.93521 7.00003 7.54521C7.00003 7.12422 6.90698 6.69522 6.99998 6.27119C7.05797 6.00119 7.02703 5.73518 6.75703 5.67621C6.48905 5.61621 6.22101 5.78922 6.16205 6.05922C6.05405 6.55324 6.00005 7.05321 6.00005 7.54521C6.00005 7.97323 6.04805 8.41019 6.15206 8.91321C6.05208 9.26023 6.00005 9.64919 6.00005 10.0452C6.00005 11.4382 6.61603 12.4962 7.44103 12.5442C8.349 15.5553 10.537 17.5452 13 17.5452C15.463 17.5452 17.651 15.5553 18.559 12.5442C19.384 12.4962 20 11.4382 20 10.0452C20 9.64924 19.948 9.26023 19.848 8.91326C19.952 8.41024 20 7.97323 20 7.54526Z" fill="none"></path>
 <path d="M19.9939 7.05421L19.4119 3.56123C19.1289 1.86623 17.6769 0.63623 15.9589 0.63623H10.0419C8.32292 0.63623 6.87191 1.86623 6.58892 3.56123L6.00692 7.05421C5.97992 7.21321 6.03191 7.37522 6.14591 7.4902C6.14591 7.88787 6.45449 8.27259 7 8.27259C7.00002 7.72714 7.03395 7.7662 7.03995 7.4902C7.04595 7.2142 7 7.18169 7 7.18169C7 7.18169 7 7.05421 7.03995 6.93825L7.57494 3.72525C7.77692 2.51423 8.81394 1.63626 10.0419 1.63626H15.9579C17.1859 1.63626 18.2229 2.51428 18.4249 3.72426L19 7.18169C19.0401 7.42611 19.5455 7.72714 19.5455 7.72714C19.5455 7.93556 19.5455 7.95679 19.5455 8.27259C19.5455 8.27259 19.9939 8.05829 19.8539 7.4902C19.9689 7.37522 20.0199 7.21321 19.9939 7.05421Z" fill="none"></path>
<path d="M20.635 19.3542L18.063 18.4593C17.875 18.3933 17.666 18.4463 17.53 18.5933C16.269 19.9693 14.66 20.7273 13 20.7273C11.34 20.7273 9.73098 19.9692 8.47 18.5922C8.33402 18.4452 8.125 18.3933 7.93698 18.4582L5.365 19.3532C2.67198 20.2892 1 22.5402 1 25.2272C1 25.5032 1.22402 25.7272 1.50002 25.7272H24.5C24.776 25.7272 25 25.5032 25 25.2272C25 22.5402 23.328 20.2902 20.635 19.3542ZM2.02398 24.7272C2.21697 22.7012 3.586 21.0312 5.69298 20.2983L7.96098 19.5093C9.379 20.9423 11.157 21.7272 13 21.7272C14.843 21.7272 16.621 20.9422 18.039 19.5093L20.307 20.2983C22.414 21.0312 23.783 22.7012 23.976 24.7272H2.02398Z" fill="none"></path>
<path d="M19.839 6.05927L20.1322 5.99575L20.132 5.99521L19.839 6.05927ZM19.244 5.67626L19.308 5.96934L19.3103 5.96883L19.244 5.67626ZM19 6.27119L19.2932 6.20757L19.2931 6.20718L19 6.27119ZM18.843 8.82827L19.1356 8.89409L19.1359 8.89288L18.843 8.82827ZM18.857 9.09429L19.1414 8.99876L19.1409 8.9974L18.857 9.09429ZM18.468 11.5222L18.3103 11.7775L18.3708 11.8148L18.4416 11.8211L18.468 11.5222ZM18.016 11.4832L17.9033 11.2052L17.9033 11.2052L18.016 11.4832ZM17.719 11.8262L17.4281 11.753L17.4278 11.754L17.719 11.8262ZM8.28098 11.8263L8.57217 11.7541L8.57192 11.7531L8.28098 11.8263ZM7.968 11.4953L7.85273 11.7723L7.85528 11.7733L7.968 11.4953ZM7.5 11.5453L7.49989 11.8453L7.58602 11.8453L7.65905 11.7997L7.5 11.5453ZM7.143 9.09523L6.85874 8.99934L6.85871 8.99941L7.143 9.09523ZM7.15701 8.82921L6.86403 8.89372L6.86445 8.89557L7.15701 8.82921ZM6.99998 6.27119L7.29302 6.33546L7.2933 6.33418L6.99998 6.27119ZM6.75703 5.67621L6.69148 5.96897L6.69302 5.9693L6.75703 5.67621ZM6.16205 6.05922L6.45512 6.1233L6.45514 6.12324L6.16205 6.05922ZM6.15206 8.91321L6.44033 8.99627L6.46086 8.92505L6.44585 8.85246L6.15206 8.91321ZM7.44103 12.5442L7.72826 12.4576L7.66773 12.2569L7.45846 12.2447L7.44103 12.5442ZM18.559 12.5442L18.5416 12.2447L18.3323 12.2569L18.2718 12.4576L18.559 12.5442ZM19.848 8.91326L19.5542 8.85251L19.5392 8.92512L19.5597 8.99636L19.848 8.91326ZM19.9939 7.05421L20.29 7.00577L20.2898 7.00491L19.9939 7.05421ZM19.4119 3.56123L19.7078 3.51192L19.7078 3.51183L19.4119 3.56123ZM6.58892 3.56123L6.29302 3.51183L6.293 3.51192L6.58892 3.56123ZM6.00692 7.05421L6.30269 7.10444L6.30284 7.10352L6.00692 7.05421ZM6.14591 7.4902H6.44591V7.36669L6.35895 7.27898L6.14591 7.4902ZM7 8.27259V8.57259H7.29999L7.3 8.2726L7 8.27259ZM7 7.18169L6.7 7.18169L6.7 7.33692L6.82672 7.42658L7 7.18169ZM7.03995 6.93825L7.32359 7.03596L7.33176 7.01225L7.33588 6.98752L7.03995 6.93825ZM7.57494 3.72525L7.27902 3.67589L7.27901 3.67597L7.57494 3.72525ZM18.4249 3.72426L18.7208 3.67504L18.7208 3.67487L18.4249 3.72426ZM19 7.18169L19.296 7.1331L19.2959 7.13246L19 7.18169ZM19.5455 7.72714H19.8455V7.55665L19.699 7.4694L19.5455 7.72714ZM19.5455 8.27259H19.2455V8.74845L19.6748 8.54328L19.5455 8.27259ZM19.8539 7.4902L19.6418 7.27807L19.5222 7.3977L19.5626 7.56197L19.8539 7.4902ZM20.635 19.3542L20.5364 19.6376L20.5365 19.6376L20.635 19.3542ZM18.063 18.4593L17.9636 18.7423L17.9644 18.7426L18.063 18.4593ZM17.53 18.5933L17.3098 18.3895L17.3088 18.3906L17.53 18.5933ZM8.47 18.5922L8.69125 18.3896L8.69022 18.3885L8.47 18.5922ZM7.93698 18.4582L7.839 18.1747L7.83839 18.1749L7.93698 18.4582ZM5.365 19.3532L5.46349 19.6366L5.46359 19.6365L5.365 19.3532ZM25 25.2272L25.3 25.2272L25.3 25.2272L25 25.2272ZM2.02398 24.7272L1.72534 24.6988L1.69405 25.0272H2.02398V24.7272ZM5.69298 20.2983L5.59441 20.0149L5.59441 20.0149L5.69298 20.2983ZM7.96098 19.5093L8.17423 19.2982L8.04113 19.1637L7.86241 19.2259L7.96098 19.5093ZM18.039 19.5093L18.1376 19.2259L17.9589 19.1637L17.8258 19.2982L18.039 19.5093ZM20.307 20.2983L20.4056 20.0149L20.4056 20.0149L20.307 20.2983ZM23.976 24.7272V25.0272H24.3059L24.2747 24.6988L23.976 24.7272ZM20.3 7.54526C20.3 7.03143 20.2436 6.51013 20.1322 5.99575L19.5458 6.12279C19.6483 6.59635 19.7 7.07508 19.7 7.54526H20.3ZM20.132 5.99521C20.0383 5.56657 19.6131 5.28494 19.1776 5.38368L19.3103 5.96883C19.4127 5.94561 19.5215 6.01198 19.5459 6.12333L20.132 5.99521ZM19.1799 5.38317C18.9345 5.43681 18.7785 5.59933 18.713 5.80273C18.6551 5.98281 18.6724 6.17722 18.7069 6.3352L19.2931 6.20718C19.2686 6.09517 19.2729 6.02161 19.2842 5.98648C19.2885 5.97303 19.2915 5.97252 19.2883 5.97549C19.2845 5.97901 19.2868 5.97398 19.308 5.96934L19.1799 5.38317ZM18.7068 6.33482C18.7439 6.50571 18.7462 6.73054 18.7348 6.98691C18.7243 7.22359 18.7 7.5094 18.7 7.7271H19.3C19.3 7.52376 19.3217 7.29361 19.3342 7.01359C19.3458 6.75326 19.3481 6.46066 19.2932 6.20757L18.7068 6.33482ZM18.7 7.7271C18.7 8.08072 18.6571 8.27785 18.55 8.76366L19.1359 8.89288C19.2427 8.40867 19.3 8.15348 19.3 7.7271H18.7ZM18.5503 8.76246C18.5182 8.90518 18.5261 9.05347 18.573 9.19117L19.1409 8.9974C19.1298 8.96504 19.1277 8.92939 19.1356 8.89409L18.5503 8.76246ZM18.5726 9.18981C18.6546 9.43412 18.7 9.73018 18.7 10.0452H19.3C19.3 9.6763 19.2474 9.31433 19.1414 8.99876L18.5726 9.18981ZM18.7 10.0452C18.7 10.4928 18.616 10.8232 18.5238 11.0297C18.4771 11.1342 18.4323 11.198 18.4031 11.2295C18.3884 11.2453 18.3839 11.2462 18.3919 11.2416C18.3982 11.2381 18.4353 11.2182 18.4944 11.2234L18.4416 11.8211C18.5432 11.83 18.6288 11.797 18.6874 11.7638C18.7477 11.7297 18.7994 11.6844 18.8425 11.638C18.929 11.545 19.0066 11.42 19.0717 11.2743C19.203 10.9803 19.3 10.5647 19.3 10.0452H18.7ZM18.6257 11.267C18.4094 11.1334 18.1411 11.1088 17.9033 11.2052L18.1287 11.7613C18.187 11.7376 18.2546 11.7431 18.3103 11.7775L18.6257 11.267ZM17.9033 11.2052C17.6652 11.3017 17.49 11.5067 17.4281 11.753L18.0099 11.8994C18.0259 11.8357 18.0708 11.7847 18.1287 11.7612L17.9033 11.2052ZM17.4278 11.754C16.745 14.5076 14.9283 16.2453 13 16.2453V16.8453C15.3177 16.8453 17.293 14.7909 18.0102 11.8984L17.4278 11.754ZM13 16.2453C11.0716 16.2453 9.25494 14.5076 8.57217 11.7541L7.9898 11.8985C8.707 14.7909 10.6823 16.8453 13 16.8453V16.2453ZM8.57192 11.7531C8.50336 11.4806 8.2908 11.3024 8.08072 11.2173L7.85528 11.7733C7.94117 11.8081 7.9806 11.8619 7.99005 11.8995L8.57192 11.7531ZM8.08327 11.2183C7.83029 11.113 7.54529 11.1631 7.34094 11.2909L7.65905 11.7997C7.72668 11.7574 7.80768 11.7535 7.85273 11.7722L8.08327 11.2183ZM7.50011 11.2453C7.5442 11.2453 7.57638 11.2566 7.59232 11.2635C7.60907 11.2707 7.61871 11.2776 7.62107 11.2794C7.62529 11.2825 7.61823 11.2779 7.60211 11.258C7.57067 11.2193 7.52525 11.1478 7.47865 11.0396C7.38642 10.8254 7.29998 10.4911 7.29998 10.0452H6.69998C6.69998 10.5674 6.80104 10.9831 6.92757 11.2769C6.99035 11.4227 7.06211 11.5448 7.13616 11.636C7.17276 11.6811 7.21551 11.7257 7.26417 11.7617C7.30449 11.7915 7.38813 11.8452 7.49989 11.8453L7.50011 11.2453ZM7.29998 10.0452C7.29998 9.73011 7.34534 9.43418 7.42729 9.19104L6.85871 8.99941C6.75259 9.31427 6.69998 9.67638 6.69998 10.0452H7.29998ZM7.42726 9.19112C7.47367 9.05354 7.48193 8.90544 7.44958 8.76284L6.86445 8.89557C6.87204 8.92904 6.87036 8.96488 6.85874 8.99934L7.42726 9.19112ZM7.45 8.7647C7.34642 8.29432 7.30003 7.90848 7.30003 7.54521H6.70003C6.70003 7.96194 6.75358 8.3921 6.86403 8.89372L7.45 8.7647ZM7.30003 7.54521C7.30003 7.3252 7.27504 7.08248 7.26468 6.89297C7.25352 6.68879 7.25526 6.50763 7.29302 6.33546L6.70695 6.20692C6.65171 6.45878 6.65347 6.70415 6.66558 6.92572C6.67849 7.16196 6.70003 7.34424 6.70003 7.54521H7.30003ZM7.2933 6.33418C7.32698 6.17732 7.34456 5.98335 7.28738 5.80362C7.22263 5.60005 7.06707 5.43685 6.82104 5.38312L6.69302 5.9693C6.71414 5.97391 6.71602 5.97884 6.71191 5.97499C6.70841 5.97171 6.71131 5.97197 6.71562 5.98551C6.72692 6.02103 6.73097 6.09507 6.70667 6.2082L7.2933 6.33418ZM6.82258 5.38346C6.38977 5.28656 5.96285 5.56529 5.86895 5.99521L6.45514 6.12324C6.47918 6.01315 6.58832 5.94586 6.69149 5.96896L6.82258 5.38346ZM5.86897 5.99515C5.75643 6.50993 5.70005 7.03138 5.70005 7.54521H6.30005C6.30005 7.07504 6.35166 6.59655 6.45512 6.1233L5.86897 5.99515ZM5.70005 7.54521C5.70005 7.99688 5.75084 8.45441 5.85828 8.97396L6.44585 8.85246C6.34525 8.36598 6.30005 7.94957 6.30005 7.54521H5.70005ZM5.86379 8.83015C5.75527 9.20678 5.70005 9.62395 5.70005 10.0452H6.30005C6.30005 9.67444 6.34888 9.31367 6.44033 8.99627L5.86379 8.83015ZM5.70005 10.0452C5.70005 10.7823 5.86249 11.4495 6.15146 11.9492C6.43918 12.4468 6.87625 12.8118 7.4236 12.8437L7.45846 12.2447C7.18081 12.2285 6.89739 12.0406 6.67087 11.6489C6.4456 11.2593 6.30005 10.701 6.30005 10.0452H5.70005ZM7.1538 12.6308C8.08543 15.7203 10.3603 17.8452 13 17.8452V17.2452C10.7136 17.2452 8.61257 15.3902 7.72826 12.4576L7.1538 12.6308ZM13 17.8452C15.6396 17.8452 17.9145 15.7203 18.8462 12.6309L18.2718 12.4576C17.3874 15.3902 15.2863 17.2452 13 17.2452V17.8452ZM18.5764 12.8437C19.1238 12.8119 19.5608 12.4468 19.8486 11.9493C20.1375 11.4496 20.3 10.7824 20.3 10.0452H19.7C19.7 10.7011 19.5544 11.2594 19.3291 11.6489C19.1026 12.0406 18.8192 12.2286 18.5416 12.2447L18.5764 12.8437ZM20.3 10.0452C20.3 9.62403 20.2448 9.20679 20.1362 8.83015L19.5597 8.99636C19.6512 9.31366 19.7 9.67445 19.7 10.0452H20.3ZM20.1417 8.97401C20.2492 8.45445 20.3 7.99688 20.3 7.54526H19.7C19.7 7.94958 19.6548 8.36603 19.5542 8.85251L20.1417 8.97401ZM20.2898 7.00491L19.7078 3.51192L19.116 3.61054L19.698 7.10352L20.2898 7.00491ZM19.7078 3.51183C19.4007 1.67227 17.8236 0.33623 15.9589 0.33623V0.93623C17.5302 0.93623 18.8571 2.06019 19.116 3.61063L19.7078 3.51183ZM15.9589 0.33623H10.0419V0.93623H15.9589V0.33623ZM10.0419 0.33623C8.17619 0.33623 6.60013 1.67232 6.29302 3.51183L6.88483 3.61063C7.14368 2.06014 8.46966 0.93623 10.0419 0.93623V0.33623ZM6.293 3.51192L5.711 7.00491L6.30284 7.10352L6.88484 3.61054L6.293 3.51192ZM5.71116 7.00399C5.66776 7.25956 5.75159 7.51858 5.93286 7.70142L6.35895 7.27898C6.31222 7.23185 6.29209 7.16687 6.30269 7.10444L5.71116 7.00399ZM5.84591 7.4902C5.84591 8.05247 6.28772 8.57259 7 8.57259V7.97259C6.62125 7.97259 6.44591 7.72326 6.44591 7.4902H5.84591ZM7.3 8.2726C7.30001 8.00669 7.30827 7.89042 7.31626 7.81002C7.32451 7.72707 7.33655 7.64993 7.33988 7.49672L6.74002 7.48368C6.73735 7.60647 6.72943 7.6478 6.7192 7.75068C6.70872 7.85612 6.70001 7.99305 6.7 8.27258L7.3 8.2726ZM7.33988 7.49672C7.34317 7.34526 7.33307 7.23829 7.31314 7.15916C7.30294 7.11869 7.28857 7.07893 7.26744 7.04202C7.25668 7.02323 7.24374 7.00443 7.22812 6.9865C7.22029 6.97753 7.21181 6.96879 7.20264 6.96043C7.19806 6.95625 7.19332 6.95218 7.18841 6.94823C7.18597 6.94625 7.18348 6.94431 7.18096 6.9424C7.17969 6.94145 7.17842 6.9405 7.17714 6.93957C7.1765 6.9391 7.17586 6.93864 7.17522 6.93817C7.1749 6.93794 7.17441 6.93759 7.17425 6.93748C7.17377 6.93713 7.17328 6.93679 7 7.18169C6.82672 7.42658 6.82624 7.42624 6.82575 7.42589C6.82559 7.42578 6.82511 7.42543 6.82479 7.4252C6.82415 7.42474 6.82351 7.42428 6.82287 7.42381C6.82161 7.42289 6.82035 7.42195 6.81911 7.42102C6.81663 7.41914 6.81421 7.41725 6.81185 7.41535C6.80712 7.41154 6.80264 7.40768 6.79839 7.40381C6.78989 7.39605 6.78239 7.38829 6.77581 7.38074C6.76268 7.36567 6.75328 7.35157 6.74674 7.34014C6.73403 7.31795 6.73077 7.30356 6.73131 7.30572C6.73286 7.31186 6.74273 7.35914 6.74002 7.48368L7.33988 7.49672ZM7 7.18169C7.3 7.18169 7.3 7.18173 7.3 7.18178C7.3 7.18179 7.3 7.18183 7.3 7.18186C7.3 7.18192 7.3 7.18198 7.3 7.18203C7.3 7.18214 7.3 7.18224 7.3 7.18233C7.3 7.18252 7.3 7.18268 7.3 7.18281C7.3 7.18307 7.3 7.18322 7.3 7.18327C7.29999 7.18335 7.3 7.18302 7.30001 7.18229C7.30004 7.18082 7.30012 7.17782 7.30032 7.17355C7.30071 7.1649 7.30154 7.15162 7.30327 7.13558C7.30696 7.10128 7.31367 7.06476 7.32359 7.03596L6.75631 6.84053C6.72628 6.9277 6.71301 7.0129 6.70672 7.07133C6.70345 7.10165 6.70179 7.12748 6.70093 7.14636C6.7005 7.15585 6.70027 7.16372 6.70015 7.16968C6.70008 7.17266 6.70005 7.17517 6.70003 7.17718C6.70002 7.17819 6.70001 7.17907 6.70001 7.17982C6.7 7.1802 6.7 7.18054 6.7 7.18085C6.7 7.18101 6.7 7.18115 6.7 7.18129C6.7 7.18136 6.7 7.18143 6.7 7.1815C6.7 7.18153 6.7 7.18158 6.7 7.18159C6.7 7.18164 6.7 7.18169 7 7.18169ZM7.33588 6.98752L7.87086 3.77452L7.27901 3.67597L6.74403 6.88897L7.33588 6.98752ZM7.87085 3.7746C8.04869 2.70831 8.96049 1.93626 10.0419 1.93626V1.33626C8.66739 1.33626 7.50515 2.32015 7.27902 3.67589L7.87085 3.7746ZM10.0419 1.93626H15.9579V1.33626H10.0419V1.93626ZM15.9579 1.93626C17.0394 1.93626 17.9512 2.70843 18.129 3.77366L18.7208 3.67487C18.4947 2.32013 17.3324 1.33626 15.9579 1.33626V1.93626ZM18.129 3.77349L18.7041 7.23091L19.2959 7.13246L18.7208 3.67504L18.129 3.77349ZM18.704 7.23027C18.7272 7.37198 18.8084 7.48743 18.8732 7.56392C18.9432 7.64658 19.0261 7.72053 19.0996 7.7797C19.1742 7.83984 19.2464 7.89046 19.2993 7.92581C19.326 7.94362 19.3483 7.9579 19.3644 7.96793C19.3724 7.97296 19.3788 7.97694 19.3835 7.97979C19.3858 7.98121 19.3877 7.98236 19.3891 7.98321C19.3898 7.98363 19.3904 7.98399 19.3909 7.98426C19.3911 7.9844 19.3913 7.98452 19.3915 7.98463C19.3916 7.98468 19.3917 7.98472 19.3917 7.98476C19.3918 7.98479 19.3918 7.98481 19.3918 7.98482C19.3919 7.98485 19.3919 7.98488 19.5455 7.72714C19.699 7.4694 19.699 7.46943 19.6991 7.46945C19.6991 7.46946 19.6991 7.46948 19.6991 7.46949C19.6992 7.46951 19.6992 7.46953 19.6992 7.46954C19.6993 7.46957 19.6993 7.46958 19.6993 7.46958C19.6993 7.46956 19.6991 7.46948 19.6989 7.46933C19.6984 7.46903 19.6974 7.46845 19.696 7.46761C19.6933 7.46593 19.6889 7.46321 19.683 7.45952C19.6712 7.45214 19.6537 7.44099 19.6324 7.42676C19.5894 7.39802 19.5327 7.35812 19.476 7.31245C19.4181 7.2658 19.3671 7.21866 19.3311 7.17613C19.2898 7.12744 19.2928 7.1136 19.296 7.1331L18.704 7.23027ZM19.2455 7.72714C19.2455 7.72755 19.2455 7.72795 19.2455 7.72836C19.2455 7.72876 19.2455 7.72917 19.2455 7.72957C19.2455 7.72998 19.2455 7.73038 19.2455 7.73078C19.2455 7.73119 19.2455 7.73159 19.2455 7.73199C19.2455 7.73239 19.2455 7.73279 19.2455 7.73319C19.2455 7.73359 19.2455 7.73399 19.2455 7.73439C19.2455 7.73479 19.2455 7.73519 19.2455 7.73558C19.2455 7.73598 19.2455 7.73638 19.2455 7.73677C19.2455 7.73717 19.2455 7.73757 19.2455 7.73796C19.2455 7.73835 19.2455 7.73875 19.2455 7.73914C19.2455 7.73953 19.2455 7.73993 19.2455 7.74032C19.2455 7.74071 19.2455 7.7411 19.2455 7.74149C19.2455 7.74188 19.2455 7.74227 19.2455 7.74266C19.2455 7.74305 19.2455 7.74344 19.2455 7.74383C19.2455 7.74421 19.2455 7.7446 19.2455 7.74499C19.2455 7.74537 19.2455 7.74576 19.2455 7.74615C19.2455 7.74653 19.2455 7.74692 19.2455 7.7473C19.2455 7.74768 19.2455 7.74807 19.2455 7.74845C19.2455 7.74883 19.2455 7.74921 19.2455 7.74959C19.2455 7.74998 19.2455 7.75036 19.2455 7.75074C19.2455 7.75112 19.2455 7.7515 19.2455 7.75187C19.2455 7.75225 19.2455 7.75263 19.2455 7.75301C19.2455 7.75339 19.2455 7.75376 19.2455 7.75414C19.2455 7.75451 19.2455 7.75489 19.2455 7.75526C19.2455 7.75564 19.2455 7.75601 19.2455 7.75639C19.2455 7.75676 19.2455 7.75713 19.2455 7.75751C19.2455 7.75788 19.2455 7.75825 19.2455 7.75862C19.2455 7.75899 19.2455 7.75936 19.2455 7.75973C19.2455 7.7601 19.2455 7.76047 19.2455 7.76084C19.2455 7.76121 19.2455 7.76158 19.2455 7.76195C19.2455 7.76231 19.2455 7.76268 19.2455 7.76305C19.2455 7.76341 19.2455 7.76378 19.2455 7.76414C19.2455 7.76451 19.2455 7.76487 19.2455 7.76524C19.2455 7.7656 19.2455 7.76596 19.2455 7.76633C19.2455 7.76669 19.2455 7.76705 19.2455 7.76741C19.2455 7.76777 19.2455 7.76813 19.2455 7.76849C19.2455 7.76886 19.2455 7.76921 19.2455 7.76957C19.2455 7.76993 19.2455 7.77029 19.2455 7.77065C19.2455 7.77101 19.2455 7.77137 19.2455 7.77172C19.2455 7.77208 19.2455 7.77244 19.2455 7.77279C19.2455 7.77315 19.2455 7.7735 19.2455 7.77386C19.2455 7.77421 19.2455 7.77456 19.2455 7.77492C19.2455 7.77527 19.2455 7.77562 19.2455 7.77598C19.2455 7.77633 19.2455 7.77668 19.2455 7.77703C19.2455 7.77738 19.2455 7.77773 19.2455 7.77808C19.2455 7.77843 19.2455 7.77878 19.2455 7.77913C19.2455 7.77948 19.2455 7.77983 19.2455 7.78018C19.2455 7.78053 19.2455 7.78087 19.2455 7.78122C19.2455 7.78157 19.2455 7.78191 19.2455 7.78226C19.2455 7.7826 19.2455 7.78295 19.2455 7.78329C19.2455 7.78364 19.2455 7.78398 19.2455 7.78433C19.2455 7.78467 19.2455 7.78501 19.2455 7.78536C19.2455 7.7857 19.2455 7.78604 19.2455 7.78638C19.2455 7.78672 19.2455 7.78706 19.2455 7.7874C19.2455 7.78774 19.2455 7.78808 19.2455 7.78842C19.2455 7.78876 19.2455 7.7891 19.2455 7.78944C19.2455 7.78978 19.2455 7.79012 19.2455 7.79045C19.2455 7.79079 19.2455 7.79113 19.2455 7.79146C19.2455 7.7918 19.2455 7.79214 19.2455 7.79247C19.2455 7.79281 19.2455 7.79314 19.2455 7.79348C19.2455 7.79381 19.2455 7.79414 19.2455 7.79448C19.2455 7.79481 19.2455 7.79514 19.2455 7.79548C19.2455 7.79581 19.2455 7.79614 19.2455 7.79647C19.2455 7.7968 19.2455 7.79713 19.2455 7.79746C19.2455 7.79779 19.2455 7.79812 19.2455 7.79845C19.2455 7.79878 19.2455 7.79911 19.2455 7.79944C19.2455 7.79977 19.2455 7.8001 19.2455 7.80042C19.2455 7.80075 19.2455 7.80108 19.2455 7.80141C19.2455 7.80173 19.2455 7.80206 19.2455 7.80238C19.2455 7.80271 19.2455 7.80303 19.2455 7.80336C19.2455 7.80368 19.2455 7.80401 19.2455 7.80433C19.2455 7.80466 19.2455 7.80498 19.2455 7.8053C19.2455 7.80562 19.2455 7.80595 19.2455 7.80627C19.2455 7.80659 19.2455 7.80691 19.2455 7.80723C19.2455 7.80755 19.2455 7.80788 19.2455 7.8082C19.2455 7.80852 19.2455 7.80884 19.2455 7.80915C19.2455 7.80947 19.2455 7.80979 19.2455 7.81011C19.2455 7.81043 19.2455 7.81075 19.2455 7.81106C19.2455 7.81138 19.2455 7.8117 19.2455 7.81202C19.2455 7.81233 19.2455 7.81265 19.2455 7.81296C19.2455 7.81328 19.2455 7.8136 19.2455 7.81391C19.2455 7.81423 19.2455 7.81454 19.2455 7.81485C19.2455 7.81517 19.2455 7.81548 19.2455 7.8158C19.2455 7.81611 19.2455 7.81642 19.2455 7.81673C19.2455 7.81705 19.2455 7.81736 19.2455 7.81767C19.2455 7.81798 19.2455 7.81829 19.2455 7.8186C19.2455 7.81891 19.2455 7.81922 19.2455 7.81953C19.2455 7.81984 19.2455 7.82015 19.2455 7.82046C19.2455 7.82077 19.2455 7.82108 19.2455 7.82139C19.2455 7.8217 19.2455 7.82201 19.2455 7.82231C19.2455 7.82262 19.2455 7.82293 19.2455 7.82324C19.2455 7.82354 19.2455 7.82385 19.2455 7.82415C19.2455 7.82446 19.2455 7.82477 19.2455 7.82507C19.2455 7.82538 19.2455 7.82568 19.2455 7.82599C19.2455 7.82629 19.2455 7.8266 19.2455 7.8269C19.2455 7.8272 19.2455 7.82751 19.2455 7.82781C19.2455 7.82811 19.2455 7.82842 19.2455 7.82872C19.2455 7.82902 19.2455 7.82932 19.2455 7.82962C19.2455 7.82992 19.2455 7.83023 19.2455 7.83053C19.2455 7.83083 19.2455 7.83113 19.2455 7.83143C19.2455 7.83173 19.2455 7.83203 19.2455 7.83233C19.2455 7.83263 19.2455 7.83293 19.2455 7.83323C19.2455 7.83352 19.2455 7.83382 19.2455 7.83412C19.2455 7.83442 19.2455 7.83472 19.2455 7.83501C19.2455 7.83531 19.2455 7.83561 19.2455 7.8359C19.2455 7.8362 19.2455 7.8365 19.2455 7.83679C19.2455 7.83709 19.2455 7.83739 19.2455 7.83768C19.2455 7.83798 19.2455 7.83827 19.2455 7.83857C19.2455 7.83886 19.2455 7.83915 19.2455 7.83945C19.2455 7.83974 19.2455 7.84004 19.2455 7.84033C19.2455 7.84062 19.2455 7.84092 19.2455 7.84121C19.2455 7.8415 19.2455 7.84179 19.2455 7.84209C19.2455 7.84238 19.2455 7.84267 19.2455 7.84296C19.2455 7.84325 19.2455 7.84354 19.2455 7.84384C19.2455 7.84413 19.2455 7.84442 19.2455 7.84471C19.2455 7.845 19.2455 7.84529 19.2455 7.84558C19.2455 7.84587 19.2455 7.84616 19.2455 7.84645C19.2455 7.84673 19.2455 7.84702 19.2455 7.84731C19.2455 7.8476 19.2455 7.84789 19.2455 7.84818C19.2455 7.84846 19.2455 7.84875 19.2455 7.84904C19.2455 7.84933 19.2455 7.84961 19.2455 7.8499C19.2455 7.85019 19.2455 7.85047 19.2455 7.85076C19.2455 7.85105 19.2455 7.85133 19.2455 7.85162C19.2455 7.8519 19.2455 7.85219 19.2455 7.85248C19.2455 7.85276 19.2455 7.85305 19.2455 7.85333C19.2455 7.85361 19.2455 7.8539 19.2455 7.85418C19.2455 7.85447 19.2455 7.85475 19.2455 7.85503C19.2455 7.85532 19.2455 7.8556 19.2455 7.85588C19.2455 7.85617 19.2455 7.85645 19.2455 7.85673C19.2455 7.85702 19.2455 7.8573 19.2455 7.85758C19.2455 7.85786 19.2455 7.85814 19.2455 7.85843C19.2455 7.85871 19.2455 7.85899 19.2455 7.85927C19.2455 7.85955 19.2455 7.85983 19.2455 7.86011C19.2455 7.86039 19.2455 7.86067 19.2455 7.86095C19.2455 7.86123 19.2455 7.86151 19.2455 7.86179C19.2455 7.86207 19.2455 7.86235 19.2455 7.86263C19.2455 7.86291 19.2455 7.86319 19.2455 7.86347C19.2455 7.86375 19.2455 7.86403 19.2455 7.8643C19.2455 7.86458 19.2455 7.86486 19.2455 7.86514C19.2455 7.86542 19.2455 7.86569 19.2455 7.86597C19.2455 7.86625 19.2455 7.86653 19.2455 7.8668C19.2455 7.86708 19.2455 7.86736 19.2455 7.86763C19.2455 7.86791 19.2455 7.86819 19.2455 7.86846C19.2455 7.86874 19.2455 7.86902 19.2455 7.86929C19.2455 7.86957 19.2455 7.86984 19.2455 7.87012C19.2455 7.87039 19.2455 7.87067 19.2455 7.87094C19.2455 7.87122 19.2455 7.87149 19.2455 7.87177C19.2455 7.87204 19.2455 7.87232 19.2455 7.87259C19.2455 7.87287 19.2455 7.87314 19.2455 7.87341C19.2455 7.87369 19.2455 7.87396 19.2455 7.87424C19.2455 7.87451 19.2455 7.87478 19.2455 7.87506C19.2455 7.87533 19.2455 7.8756 19.2455 7.87588C19.2455 7.87615 19.2455 7.87642 19.2455 7.87669C19.2455 7.87697 19.2455 7.87724 19.2455 7.87751C19.2455 7.87778 19.2455 7.87806 19.2455 7.87833C19.2455 7.8786 19.2455 7.87887 19.2455 7.87914C19.2455 7.87941 19.2455 7.87969 19.2455 7.87996C19.2455 7.88023 19.2455 7.8805 19.2455 7.88077C19.2455 7.88104 19.2455 7.88131 19.2455 7.88158C19.2455 7.88185 19.2455 7.88212 19.2455 7.8824C19.2455 7.88267 19.2455 7.88294 19.2455 7.88321C19.2455 7.88348 19.2455 7.88375 19.2455 7.88402C19.2455 7.88429 19.2455 7.88456 19.2455 7.88483C19.2455 7.8851 19.2455 7.88536 19.2455 7.88563C19.2455 7.8859 19.2455 7.88617 19.2455 7.88644C19.2455 7.88671 19.2455 7.88698 19.2455 7.88725C19.2455 7.88752 19.2455 7.88779 19.2455 7.88806C19.2455 7.88832 19.2455 7.88859 19.2455 7.88886C19.2455 7.88913 19.2455 7.8894 19.2455 7.88967C19.2455 7.88993 19.2455 7.8902 19.2455 7.89047C19.2455 7.89074 19.2455 7.89101 19.2455 7.89127C19.2455 7.89154 19.2455 7.89181 19.2455 7.89208C19.2455 7.89234 19.2455 7.89261 19.2455 7.89288C19.2455 7.89315 19.2455 7.89341 19.2455 7.89368C19.2455 7.89395 19.2455 7.89422 19.2455 7.89448C19.2455 7.89475 19.2455 7.89502 19.2455 7.89528C19.2455 7.89555 19.2455 7.89582 19.2455 7.89608C19.2455 7.89635 19.2455 7.89662 19.2455 7.89688C19.2455 7.89715 19.2455 7.89742 19.2455 7.89768C19.2455 7.89795 19.2455 7.89822 19.2455 7.89848C19.2455 7.89875 19.2455 7.89902 19.2455 7.89928C19.2455 7.89955 19.2455 7.89981 19.2455 7.90008C19.2455 7.90035 19.2455 7.90061 19.2455 7.90088C19.2455 7.90114 19.2455 7.90141 19.2455 7.90168C19.2455 7.90194 19.2455 7.90221 19.2455 7.90247C19.2455 7.90274 19.2455 7.903 19.2455 7.90327C19.2455 7.90354 19.2455 7.9038 19.2455 7.90407C19.2455 7.90433 19.2455 7.9046 19.2455 7.90486C19.2455 7.90513 19.2455 7.90539 19.2455 7.90566C19.2455 7.90593 19.2455 7.90619 19.2455 7.90646C19.2455 7.90672 19.2455 7.90699 19.2455 7.90725C19.2455 7.90752 19.2455 7.90778 19.2455 7.90805C19.2455 7.90831 19.2455 7.90858 19.2455 7.90884C19.2455 7.90911 19.2455 7.90937 19.2455 7.90964C19.2455 7.9099 19.2455 7.91017 19.2455 7.91043C19.2455 7.9107 19.2455 7.91096 19.2455 7.91123C19.2455 7.91149 19.2455 7.91176 19.2455 7.91202C19.2455 7.91229 19.2455 7.91255 19.2455 7.91282C19.2455 7.91308 19.2455 7.91335 19.2455 7.91361C19.2455 7.91388 19.2455 7.91414 19.2455 7.91441C19.2455 7.91467 19.2455 7.91494 19.2455 7.9152C19.2455 7.91547 19.2455 7.91573 19.2455 7.916C19.2455 7.91626 19.2455 7.91653 19.2455 7.91679C19.2455 7.91706 19.2455 7.91732 19.2455 7.91759C19.2455 7.91785 19.2455 7.91812 19.2455 7.91838C19.2455 7.91865 19.2455 7.91891 19.2455 7.91918C19.2455 7.91945 19.2455 7.91971 19.2455 7.91998C19.2455 7.92024 19.2455 7.92051 19.2455 7.92077C19.2455 7.92104 19.2455 7.9213 19.2455 7.92157C19.2455 7.92183 19.2455 7.9221 19.2455 7.92236C19.2455 7.92263 19.2455 7.92289 19.2455 7.92316C19.2455 7.92343 19.2455 7.92369 19.2455 7.92396C19.2455 7.92422 19.2455 7.92449 19.2455 7.92475C19.2455 7.92502 19.2455 7.92529 19.2455 7.92555C19.2455 7.92582 19.2455 7.92608 19.2455 7.92635C19.2455 7.92661 19.2455 7.92688 19.2455 7.92715C19.2455 7.92741 19.2455 7.92768 19.2455 7.92795C19.2455 7.92821 19.2455 7.92848 19.2455 7.92874C19.2455 7.92901 19.2455 7.92928 19.2455 7.92954C19.2455 7.92981 19.2455 7.93008 19.2455 7.93034C19.2455 7.93061 19.2455 7.93088 19.2455 7.93114C19.2455 7.93141 19.2455 7.93168 19.2455 7.93194C19.2455 7.93221 19.2455 7.93248 19.2455 7.93274C19.2455 7.93301 19.2455 7.93328 19.2455 7.93355C19.2455 7.93381 19.2455 7.93408 19.2455 7.93435C19.2455 7.93462 19.2455 7.93488 19.2455 7.93515C19.2455 7.93542 19.2455 7.93569 19.2455 7.93595C19.2455 7.93622 19.2455 7.93649 19.2455 7.93676C19.2455 7.93703 19.2455 7.93729 19.2455 7.93756C19.2455 7.93783 19.2455 7.9381 19.2455 7.93837C19.2455 7.93864 19.2455 7.9389 19.2455 7.93917C19.2455 7.93944 19.2455 7.93971 19.2455 7.93998C19.2455 7.94025 19.2455 7.94052 19.2455 7.94079C19.2455 7.94106 19.2455 7.94133 19.2455 7.94159C19.2455 7.94186 19.2455 7.94213 19.2455 7.9424C19.2455 7.94267 19.2455 7.94294 19.2455 7.94321C19.2455 7.94348 19.2455 7.94375 19.2455 7.94402C19.2455 7.94429 19.2455 7.94456 19.2455 7.94483C19.2455 7.9451 19.2455 7.94538 19.2455 7.94565C19.2455 7.94592 19.2455 7.94619 19.2455 7.94646C19.2455 7.94673 19.2455 7.947 19.2455 7.94727C19.2455 7.94754 19.2455 7.94782 19.2455 7.94809C19.2455 7.94836 19.2455 7.94863 19.2455 7.9489C19.2455 7.94917 19.2455 7.94945 19.2455 7.94972C19.2455 7.94999 19.2455 7.95026 19.2455 7.95054C19.2455 7.95081 19.2455 7.95108 19.2455 7.95135C19.2455 7.95163 19.2455 7.9519 19.2455 7.95217C19.2455 7.95245 19.2455 7.95272 19.2455 7.95299C19.2455 7.95327 19.2455 7.95354 19.2455 7.95382C19.2455 7.95409 19.2455 7.95436 19.2455 7.95464C19.2455 7.95491 19.2455 7.95519 19.2455 7.95546C19.2455 7.95574 19.2455 7.95601 19.2455 7.95629C19.2455 7.95656 19.2455 7.95684 19.2455 7.95711C19.2455 7.95739 19.2455 7.95766 19.2455 7.95794C19.2455 7.95822 19.2455 7.95849 19.2455 7.95877C19.2455 7.95904 19.2455 7.95932 19.2455 7.9596C19.2455 7.95987 19.2455 7.96015 19.2455 7.96043C19.2455 7.96071 19.2455 7.96098 19.2455 7.96126C19.2455 7.96154 19.2455 7.96182 19.2455 7.96209C19.2455 7.96237 19.2455 7.96265 19.2455 7.96293C19.2455 7.96321 19.2455 7.96349 19.2455 7.96376C19.2455 7.96404 19.2455 7.96432 19.2455 7.9646C19.2455 7.96488 19.2455 7.96516 19.2455 7.96544C19.2455 7.96572 19.2455 7.966 19.2455 7.96628C19.2455 7.96656 19.2455 7.96684 19.2455 7.96712C19.2455 7.9674 19.2455 7.96768 19.2455 7.96796C19.2455 7.96824 19.2455 7.96853 19.2455 7.96881C19.2455 7.96909 19.2455 7.96937 19.2455 7.96965C19.2455 7.96994 19.2455 7.97022 19.2455 7.9705C19.2455 7.97078 19.2455 7.97107 19.2455 7.97135C19.2455 7.97163 19.2455 7.97192 19.2455 7.9722C19.2455 7.97248 19.2455 7.97277 19.2455 7.97305C19.2455 7.97334 19.2455 7.97362 19.2455 7.9739C19.2455 7.97419 19.2455 7.97447 19.2455 7.97476C19.2455 7.97504 19.2455 7.97533 19.2455 7.97562C19.2455 7.9759 19.2455 7.97619 19.2455 7.97647C19.2455 7.97676 19.2455 7.97705 19.2455 7.97733C19.2455 7.97762 19.2455 7.97791 19.2455 7.9782C19.2455 7.97848 19.2455 7.97877 19.2455 7.97906C19.2455 7.97935 19.2455 7.97963 19.2455 7.97992C19.2455 7.98021 19.2455 7.9805 19.2455 7.98079C19.2455 7.98108 19.2455 7.98137 19.2455 7.98166C19.2455 7.98195 19.2455 7.98224 19.2455 7.98253C19.2455 7.98282 19.2455 7.98311 19.2455 7.9834C19.2455 7.98369 19.2455 7.98398 19.2455 7.98427C19.2455 7.98457 19.2455 7.98486 19.2455 7.98515C19.2455 7.98544 19.2455 7.98574 19.2455 7.98603C19.2455 7.98632 19.2455 7.98661 19.2455 7.98691C19.2455 7.9872 19.2455 7.98749 19.2455 7.98779C19.2455 7.98808 19.2455 7.98838 19.2455 7.98867C19.2455 7.98897 19.2455 7.98926 19.2455 7.98956C19.2455 7.98985 19.2455 7.99015 19.2455 7.99044C19.2455 7.99074 19.2455 7.99104 19.2455 7.99133C19.2455 7.99163 19.2455 7.99193 19.2455 7.99223C19.2455 7.99252 19.2455 7.99282 19.2455 7.99312C19.2455 7.99342 19.2455 7.99372 19.2455 7.99401C19.2455 7.99431 19.2455 7.99461 19.2455 7.99491C19.2455 7.99521 19.2455 7.99551 19.2455 7.99581C19.2455 7.99611 19.2455 7.99641 19.2455 7.99671C19.2455 7.99701 19.2455 7.99732 19.2455 7.99762C19.2455 7.99792 19.2455 7.99822 19.2455 7.99852C19.2455 7.99883 19.2455 7.99913 19.2455 7.99943C19.2455 7.99973 19.2455 8.00004 19.2455 8.00034C19.2455 8.00065 19.2455 8.00095 19.2455 8.00126C19.2455 8.00156 19.2455 8.00186 19.2455 8.00217C19.2455 8.00248 19.2455 8.00278 19.2455 8.00309C19.2455 8.00339 19.2455 8.0037 19.2455 8.00401C19.2455 8.00431 19.2455 8.00462 19.2455 8.00493C19.2455 8.00524 19.2455 8.00554 19.2455 8.00585C19.2455 8.00616 19.2455 8.00647 19.2455 8.00678C19.2455 8.00709 19.2455 8.0074 19.2455 8.00771C19.2455 8.00802 19.2455 8.00833 19.2455 8.00864C19.2455 8.00895 19.2455 8.00926 19.2455 8.00957C19.2455 8.00989 19.2455 8.0102 19.2455 8.01051C19.2455 8.01082 19.2455 8.01114 19.2455 8.01145C19.2455 8.01176 19.2455 8.01208 19.2455 8.01239C19.2455 8.01271 19.2455 8.01302 19.2455 8.01333C19.2455 8.01365 19.2455 8.01397 19.2455 8.01428C19.2455 8.0146 19.2455 8.01491 19.2455 8.01523C19.2455 8.01555 19.2455 8.01586 19.2455 8.01618C19.2455 8.0165 19.2455 8.01682 19.2455 8.01714C19.2455 8.01745 19.2455 8.01777 19.2455 8.01809C19.2455 8.01841 19.2455 8.01873 19.2455 8.01905C19.2455 8.01937 19.2455 8.01969 19.2455 8.02001C19.2455 8.02034 19.2455 8.02066 19.2455 8.02098C19.2455 8.0213 19.2455 8.02162 19.2455 8.02195C19.2455 8.02227 19.2455 8.02259 19.2455 8.02292C19.2455 8.02324 19.2455 8.02357 19.2455 8.02389C19.2455 8.02421 19.2455 8.02454 19.2455 8.02487C19.2455 8.02519 19.2455 8.02552 19.2455 8.02584C19.2455 8.02617 19.2455 8.0265 19.2455 8.02683C19.2455 8.02715 19.2455 8.02748 19.2455 8.02781C19.2455 8.02814 19.2455 8.02847 19.2455 8.0288C19.2455 8.02913 19.2455 8.02946 19.2455 8.02979C19.2455 8.03012 19.2455 8.03045 19.2455 8.03078C19.2455 8.03111 19.2455 8.03144 19.2455 8.03178C19.2455 8.03211 19.2455 8.03244 19.2455 8.03277C19.2455 8.03311 19.2455 8.03344 19.2455 8.03378C19.2455 8.03411 19.2455 8.03445 19.2455 8.03478C19.2455 8.03512 19.2455 8.03545 19.2455 8.03579C19.2455 8.03613 19.2455 8.03646 19.2455 8.0368C19.2455 8.03714 19.2455 8.03748 19.2455 8.03781C19.2455 8.03815 19.2455 8.03849 19.2455 8.03883C19.2455 8.03917 19.2455 8.03951 19.2455 8.03985C19.2455 8.04019 19.2455 8.04053 19.2455 8.04087C19.2455 8.04122 19.2455 8.04156 19.2455 8.0419C19.2455 8.04224 19.2455 8.04259 19.2455 8.04293C19.2455 8.04327 19.2455 8.04362 19.2455 8.04396C19.2455 8.04431 19.2455 8.04465 19.2455 8.045C19.2455 8.04534 19.2455 8.04569 19.2455 8.04604C19.2455 8.04638 19.2455 8.04673 19.2455 8.04708C19.2455 8.04743 19.2455 8.04778 19.2455 8.04813C19.2455 8.04847 19.2455 8.04882 19.2455 8.04917C19.2455 8.04952 19.2455 8.04988 19.2455 8.05023C19.2455 8.05058 19.2455 8.05093 19.2455 8.05128C19.2455 8.05164 19.2455 8.05199 19.2455 8.05234C19.2455 8.0527 19.2455 8.05305 19.2455 8.0534C19.2455 8.05376 19.2455 8.05411 19.2455 8.05447C19.2455 8.05483 19.2455 8.05518 19.2455 8.05554C19.2455 8.0559 19.2455 8.05625 19.2455 8.05661C19.2455 8.05697 19.2455 8.05733 19.2455 8.05769C19.2455 8.05805 19.2455 8.05841 19.2455 8.05877C19.2455 8.05913 19.2455 8.05949 19.2455 8.05985C19.2455 8.06021 19.2455 8.06057 19.2455 8.06094C19.2455 8.0613 19.2455 8.06166 19.2455 8.06203C19.2455 8.06239 19.2455 8.06276 19.2455 8.06312C19.2455 8.06349 19.2455 8.06385 19.2455 8.06422C19.2455 8.06458 19.2455 8.06495 19.2455 8.06532C19.2455 8.06569 19.2455 8.06606 19.2455 8.06642C19.2455 8.06679 19.2455 8.06716 19.2455 8.06753C19.2455 8.0679 19.2455 8.06827 19.2455 8.06864C19.2455 8.06902 19.2455 8.06939 19.2455 8.06976C19.2455 8.07013 19.2455 8.07051 19.2455 8.07088C19.2455 8.07125 19.2455 8.07163 19.2455 8.072C19.2455 8.07238 19.2455 8.07275 19.2455 8.07313C19.2455 8.07351 19.2455 8.07388 19.2455 8.07426C19.2455 8.07464 19.2455 8.07502 19.2455 8.07539C19.2455 8.07577 19.2455 8.07615 19.2455 8.07653C19.2455 8.07691 19.2455 8.07729 19.2455 8.07768C19.2455 8.07806 19.2455 8.07844 19.2455 8.07882C19.2455 8.0792 19.2455 8.07959 19.2455 8.07997C19.2455 8.08036 19.2455 8.08074 19.2455 8.08113C19.2455 8.08151 19.2455 8.0819 19.2455 8.08228C19.2455 8.08267 19.2455 8.08306 19.2455 8.08345C19.2455 8.08383 19.2455 8.08422 19.2455 8.08461C19.2455 8.085 19.2455 8.08539 19.2455 8.08578C19.2455 8.08617 19.2455 8.08656 19.2455 8.08695C19.2455 8.08735 19.2455 8.08774 19.2455 8.08813C19.2455 8.08853 19.2455 8.08892 19.2455 8.08931C19.2455 8.08971 19.2455 8.0901 19.2455 8.0905C19.2455 8.0909 19.2455 8.09129 19.2455 8.09169C19.2455 8.09209 19.2455 8.09249 19.2455 8.09289C19.2455 8.09328 19.2455 8.09368 19.2455 8.09408C19.2455 8.09448 19.2455 8.09489 19.2455 8.09529C19.2455 8.09569 19.2455 8.09609 19.2455 8.09649C19.2455 8.0969 19.2455 8.0973 19.2455 8.0977C19.2455 8.09811 19.2455 8.09851 19.2455 8.09892C19.2455 8.09933 19.2455 8.09973 19.2455 8.10014C19.2455 8.10055 19.2455 8.10095 19.2455 8.10136C19.2455 8.10177 19.2455 8.10218 19.2455 8.10259C19.2455 8.103 19.2455 8.10341 19.2455 8.10382C19.2455 8.10424 19.2455 8.10465 19.2455 8.10506C19.2455 8.10547 19.2455 8.10589 19.2455 8.1063C19.2455 8.10672 19.2455 8.10713 19.2455 8.10755C19.2455 8.10796 19.2455 8.10838 19.2455 8.1088C19.2455 8.10922 19.2455 8.10963 19.2455 8.11005C19.2455 8.11047 19.2455 8.11089 19.2455 8.11131C19.2455 8.11173 19.2455 8.11215 19.2455 8.11257C19.2455 8.113 19.2455 8.11342 19.2455 8.11384C19.2455 8.11427 19.2455 8.11469 19.2455 8.11512C19.2455 8.11554 19.2455 8.11597 19.2455 8.11639C19.2455 8.11682 19.2455 8.11725 19.2455 8.11767C19.2455 8.1181 19.2455 8.11853 19.2455 8.11896C19.2455 8.11939 19.2455 8.11982 19.2455 8.12025C19.2455 8.12068 19.2455 8.12111 19.2455 8.12155C19.2455 8.12198 19.2455 8.12241 19.2455 8.12285C19.2455 8.12328 19.2455 8.12372 19.2455 8.12415C19.2455 8.12459 19.2455 8.12502 19.2455 8.12546C19.2455 8.1259 19.2455 8.12634 19.2455 8.12677C19.2455 8.12721 19.2455 8.12765 19.2455 8.12809C19.2455 8.12853 19.2455 8.12898 19.2455 8.12942C19.2455 8.12986 19.2455 8.1303 19.2455 8.13075C19.2455 8.13119 19.2455 8.13163 19.2455 8.13208C19.2455 8.13252 19.2455 8.13297 19.2455 8.13342C19.2455 8.13386 19.2455 8.13431 19.2455 8.13476C19.2455 8.13521 19.2455 8.13566 19.2455 8.13611C19.2455 8.13656 19.2455 8.13701 19.2455 8.13746C19.2455 8.13791 19.2455 8.13836 19.2455 8.13882C19.2455 8.13927 19.2455 8.13973 19.2455 8.14018C19.2455 8.14064 19.2455 8.14109 19.2455 8.14155C19.2455 8.142 19.2455 8.14246 19.2455 8.14292C19.2455 8.14338 19.2455 8.14384 19.2455 8.1443C19.2455 8.14476 19.2455 8.14522 19.2455 8.14568C19.2455 8.14614 19.2455 8.1466 19.2455 8.14707C19.2455 8.14753 19.2455 8.148 19.2455 8.14846C19.2455 8.14893 19.2455 8.14939 19.2455 8.14986C19.2455 8.15032 19.2455 8.15079 19.2455 8.15126C19.2455 8.15173 19.2455 8.1522 19.2455 8.15267C19.2455 8.15314 19.2455 8.15361 19.2455 8.15408C19.2455 8.15455 19.2455 8.15503 19.2455 8.1555C19.2455 8.15597 19.2455 8.15645 19.2455 8.15692C19.2455 8.1574 19.2455 8.15787 19.2455 8.15835C19.2455 8.15883 19.2455 8.15931 19.2455 8.15979C19.2455 8.16026 19.2455 8.16074 19.2455 8.16122C19.2455 8.16171 19.2455 8.16219 19.2455 8.16267C19.2455 8.16315 19.2455 8.16363 19.2455 8.16412C19.2455 8.1646 19.2455 8.16509 19.2455 8.16557C19.2455 8.16606 19.2455 8.16655 19.2455 8.16703C19.2455 8.16752 19.2455 8.16801 19.2455 8.1685C19.2455 8.16899 19.2455 8.16948 19.2455 8.16997C19.2455 8.17046 19.2455 8.17095 19.2455 8.17145C19.2455 8.17194 19.2455 8.17243 19.2455 8.17293C19.2455 8.17342 19.2455 8.17392 19.2455 8.17442C19.2455 8.17491 19.2455 8.17541 19.2455 8.17591C19.2455 8.17641 19.2455 8.17691 19.2455 8.17741C19.2455 8.17791 19.2455 8.17841 19.2455 8.17891C19.2455 8.17941 19.2455 8.17992 19.2455 8.18042C19.2455 8.18093 19.2455 8.18143 19.2455 8.18194C19.2455 8.18244 19.2455 8.18295 19.2455 8.18346C19.2455 8.18396 19.2455 8.18447 19.2455 8.18498C19.2455 8.18549 19.2455 8.186 19.2455 8.18651C19.2455 8.18703 19.2455 8.18754 19.2455 8.18805C19.2455 8.18857 19.2455 8.18908 19.2455 8.1896C19.2455 8.19011 19.2455 8.19063 19.2455 8.19114C19.2455 8.19166 19.2455 8.19218 19.2455 8.1927C19.2455 8.19322 19.2455 8.19374 19.2455 8.19426C19.2455 8.19478 19.2455 8.1953 19.2455 8.19582C19.2455 8.19635 19.2455 8.19687 19.2455 8.1974C19.2455 8.19792 19.2455 8.19845 19.2455 8.19897C19.2455 8.1995 19.2455 8.20003 19.2455 8.20056C19.2455 8.20109 19.2455 8.20162 19.2455 8.20215C19.2455 8.20268 19.2455 8.20321 19.2455 8.20374C19.2455 8.20427 19.2455 8.20481 19.2455 8.20534C19.2455 8.20588 19.2455 8.20641 19.2455 8.20695C19.2455 8.20749 19.2455 8.20802 19.2455 8.20856C19.2455 8.2091 19.2455 8.20964 19.2455 8.21018C19.2455 8.21072 19.2455 8.21126 19.2455 8.21181C19.2455 8.21235 19.2455 8.21289 19.2455 8.21344C19.2455 8.21398 19.2455 8.21453 19.2455 8.21507C19.2455 8.21562 19.2455 8.21617 19.2455 8.21672C19.2455 8.21726 19.2455 8.21781 19.2455 8.21836C19.2455 8.21891 19.2455 8.21947 19.2455 8.22002C19.2455 8.22057 19.2455 8.22112 19.2455 8.22168C19.2455 8.22223 19.2455 8.22279 19.2455 8.22335C19.2455 8.2239 19.2455 8.22446 19.2455 8.22502C19.2455 8.22558 19.2455 8.22614 19.2455 8.2267C19.2455 8.22726 19.2455 8.22782 19.2455 8.22838C19.2455 8.22895 19.2455 8.22951 19.2455 8.23008C19.2455 8.23064 19.2455 8.23121 19.2455 8.23177C19.2455 8.23234 19.2455 8.23291 19.2455 8.23348C19.2455 8.23405 19.2455 8.23462 19.2455 8.23519C19.2455 8.23576 19.2455 8.23633 19.2455 8.23691C19.2455 8.23748 19.2455 8.23805 19.2455 8.23863C19.2455 8.2392 19.2455 8.23978 19.2455 8.24036C19.2455 8.24094 19.2455 8.24151 19.2455 8.24209C19.2455 8.24267 19.2455 8.24325 19.2455 8.24384C19.2455 8.24442 19.2455 8.245 19.2455 8.24558C19.2455 8.24617 19.2455 8.24675 19.2455 8.24734C19.2455 8.24793 19.2455 8.24851 19.2455 8.2491C19.2455 8.24969 19.2455 8.25028 19.2455 8.25087C19.2455 8.25146 19.2455 8.25205 19.2455 8.25264C19.2455 8.25324 19.2455 8.25383 19.2455 8.25442C19.2455 8.25502 19.2455 8.25561 19.2455 8.25621C19.2455 8.25681 19.2455 8.25741 19.2455 8.258C19.2455 8.2586 19.2455 8.2592 19.2455 8.25981C19.2455 8.26041 19.2455 8.26101 19.2455 8.26161C19.2455 8.26222 19.2455 8.26282 19.2455 8.26343C19.2455 8.26403 19.2455 8.26464 19.2455 8.26525C19.2455 8.26585 19.2455 8.26646 19.2455 8.26707C19.2455 8.26768 19.2455 8.26829 19.2455 8.26891C19.2455 8.26952 19.2455 8.27013 19.2455 8.27075C19.2455 8.27136 19.2455 8.27198 19.2455 8.27259H19.8455C19.8455 8.27198 19.8455 8.27136 19.8455 8.27075C19.8455 8.27013 19.8455 8.26952 19.8455 8.26891C19.8455 8.26829 19.8455 8.26768 19.8455 8.26707C19.8455 8.26646 19.8455 8.26585 19.8455 8.26525C19.8455 8.26464 19.8455 8.26403 19.8455 8.26343C19.8455 8.26282 19.8455 8.26222 19.8455 8.26161C19.8455 8.26101 19.8455 8.26041 19.8455 8.25981C19.8455 8.2592 19.8455 8.2586 19.8455 8.258C19.8455 8.25741 19.8455 8.25681 19.8455 8.25621C19.8455 8.25561 19.8455 8.25502 19.8455 8.25442C19.8455 8.25383 19.8455 8.25324 19.8455 8.25264C19.8455 8.25205 19.8455 8.25146 19.8455 8.25087C19.8455 8.25028 19.8455 8.24969 19.8455 8.2491C19.8455 8.24851 19.8455 8.24793 19.8455 8.24734C19.8455 8.24675 19.8455 8.24617 19.8455 8.24558C19.8455 8.245 19.8455 8.24442 19.8455 8.24384C19.8455 8.24325 19.8455 8.24267 19.8455 8.24209C19.8455 8.24151 19.8455 8.24094 19.8455 8.24036C19.8455 8.23978 19.8455 8.2392 19.8455 8.23863C19.8455 8.23805 19.8455 8.23748 19.8455 8.23691C19.8455 8.23633 19.8455 8.23576 19.8455 8.23519C19.8455 8.23462 19.8455 8.23405 19.8455 8.23348C19.8455 8.23291 19.8455 8.23234 19.8455 8.23177C19.8455 8.23121 19.8455 8.23064 19.8455 8.23008C19.8455 8.22951 19.8455 8.22895 19.8455 8.22838C19.8455 8.22782 19.8455 8.22726 19.8455 8.2267C19.8455 8.22614 19.8455 8.22558 19.8455 8.22502C19.8455 8.22446 19.8455 8.2239 19.8455 8.22335C19.8455 8.22279 19.8455 8.22223 19.8455 8.22168C19.8455 8.22112 19.8455 8.22057 19.8455 8.22002C19.8455 8.21947 19.8455 8.21891 19.8455 8.21836C19.8455 8.21781 19.8455 8.21726 19.8455 8.21672C19.8455 8.21617 19.8455 8.21562 19.8455 8.21507C19.8455 8.21453 19.8455 8.21398 19.8455 8.21344C19.8455 8.21289 19.8455 8.21235 19.8455 8.21181C19.8455 8.21126 19.8455 8.21072 19.8455 8.21018C19.8455 8.20964 19.8455 8.2091 19.8455 8.20856C19.8455 8.20802 19.8455 8.20749 19.8455 8.20695C19.8455 8.20641 19.8455 8.20588 19.8455 8.20534C19.8455 8.20481 19.8455 8.20427 19.8455 8.20374C19.8455 8.20321 19.8455 8.20268 19.8455 8.20215C19.8455 8.20162 19.8455 8.20109 19.8455 8.20056C19.8455 8.20003 19.8455 8.1995 19.8455 8.19897C19.8455 8.19845 19.8455 8.19792 19.8455 8.1974C19.8455 8.19687 19.8455 8.19635 19.8455 8.19582C19.8455 8.1953 19.8455 8.19478 19.8455 8.19426C19.8455 8.19374 19.8455 8.19322 19.8455 8.1927C19.8455 8.19218 19.8455 8.19166 19.8455 8.19114C19.8455 8.19063 19.8455 8.19011 19.8455 8.1896C19.8455 8.18908 19.8455 8.18857 19.8455 8.18805C19.8455 8.18754 19.8455 8.18703 19.8455 8.18651C19.8455 8.186 19.8455 8.18549 19.8455 8.18498C19.8455 8.18447 19.8455 8.18396 19.8455 8.18346C19.8455 8.18295 19.8455 8.18244 19.8455 8.18194C19.8455 8.18143 19.8455 8.18093 19.8455 8.18042C19.8455 8.17992 19.8455 8.17941 19.8455 8.17891C19.8455 8.17841 19.8455 8.17791 19.8455 8.17741C19.8455 8.17691 19.8455 8.17641 19.8455 8.17591C19.8455 8.17541 19.8455 8.17491 19.8455 8.17442C19.8455 8.17392 19.8455 8.17342 19.8455 8.17293C19.8455 8.17243 19.8455 8.17194 19.8455 8.17145C19.8455 8.17095 19.8455 8.17046 19.8455 8.16997C19.8455 8.16948 19.8455 8.16899 19.8455 8.1685C19.8455 8.16801 19.8455 8.16752 19.8455 8.16703C19.8455 8.16655 19.8455 8.16606 19.8455 8.16557C19.8455 8.16509 19.8455 8.1646 19.8455 8.16412C19.8455 8.16363 19.8455 8.16315 19.8455 8.16267C19.8455 8.16219 19.8455 8.16171 19.8455 8.16122C19.8455 8.16074 19.8455 8.16026 19.8455 8.15979C19.8455 8.15931 19.8455 8.15883 19.8455 8.15835C19.8455 8.15787 19.8455 8.1574 19.8455 8.15692C19.8455 8.15645 19.8455 8.15597 19.8455 8.1555C19.8455 8.15503 19.8455 8.15455 19.8455 8.15408C19.8455 8.15361 19.8455 8.15314 19.8455 8.15267C19.8455 8.1522 19.8455 8.15173 19.8455 8.15126C19.8455 8.15079 19.8455 8.15032 19.8455 8.14986C19.8455 8.14939 19.8455 8.14893 19.8455 8.14846C19.8455 8.148 19.8455 8.14753 19.8455 8.14707C19.8455 8.1466 19.8455 8.14614 19.8455 8.14568C19.8455 8.14522 19.8455 8.14476 19.8455 8.1443C19.8455 8.14384 19.8455 8.14338 19.8455 8.14292C19.8455 8.14246 19.8455 8.142 19.8455 8.14155C19.8455 8.14109 19.8455 8.14064 19.8455 8.14018C19.8455 8.13973 19.8455 8.13927 19.8455 8.13882C19.8455 8.13836 19.8455 8.13791 19.8455 8.13746C19.8455 8.13701 19.8455 8.13656 19.8455 8.13611C19.8455 8.13566 19.8455 8.13521 19.8455 8.13476C19.8455 8.13431 19.8455 8.13386 19.8455 8.13342C19.8455 8.13297 19.8455 8.13252 19.8455 8.13208C19.8455 8.13163 19.8455 8.13119 19.8455 8.13075C19.8455 8.1303 19.8455 8.12986 19.8455 8.12942C19.8455 8.12898 19.8455 8.12853 19.8455 8.12809C19.8455 8.12765 19.8455 8.12721 19.8455 8.12677C19.8455 8.12634 19.8455 8.1259 19.8455 8.12546C19.8455 8.12502 19.8455 8.12459 19.8455 8.12415C19.8455 8.12372 19.8455 8.12328 19.8455 8.12285C19.8455 8.12241 19.8455 8.12198 19.8455 8.12155C19.8455 8.12111 19.8455 8.12068 19.8455 8.12025C19.8455 8.11982 19.8455 8.11939 19.8455 8.11896C19.8455 8.11853 19.8455 8.1181 19.8455 8.11767C19.8455 8.11725 19.8455 8.11682 19.8455 8.11639C19.8455 8.11597 19.8455 8.11554 19.8455 8.11512C19.8455 8.11469 19.8455 8.11427 19.8455 8.11384C19.8455 8.11342 19.8455 8.113 19.8455 8.11257C19.8455 8.11215 19.8455 8.11173 19.8455 8.11131C19.8455 8.11089 19.8455 8.11047 19.8455 8.11005C19.8455 8.10963 19.8455 8.10922 19.8455 8.1088C19.8455 8.10838 19.8455 8.10796 19.8455 8.10755C19.8455 8.10713 19.8455 8.10672 19.8455 8.1063C19.8455 8.10589 19.8455 8.10547 19.8455 8.10506C19.8455 8.10465 19.8455 8.10424 19.8455 8.10382C19.8455 8.10341 19.8455 8.103 19.8455 8.10259C19.8455 8.10218 19.8455 8.10177 19.8455 8.10136C19.8455 8.10095 19.8455 8.10055 19.8455 8.10014C19.8455 8.09973 19.8455 8.09933 19.8455 8.09892C19.8455 8.09851 19.8455 8.09811 19.8455 8.0977C19.8455 8.0973 19.8455 8.0969 19.8455 8.09649C19.8455 8.09609 19.8455 8.09569 19.8455 8.09529C19.8455 8.09489 19.8455 8.09448 19.8455 8.09408C19.8455 8.09368 19.8455 8.09328 19.8455 8.09289C19.8455 8.09249 19.8455 8.09209 19.8455 8.09169C19.8455 8.09129 19.8455 8.0909 19.8455 8.0905C19.8455 8.0901 19.8455 8.08971 19.8455 8.08931C19.8455 8.08892 19.8455 8.08853 19.8455 8.08813C19.8455 8.08774 19.8455 8.08735 19.8455 8.08695C19.8455 8.08656 19.8455 8.08617 19.8455 8.08578C19.8455 8.08539 19.8455 8.085 19.8455 8.08461C19.8455 8.08422 19.8455 8.08383 19.8455 8.08345C19.8455 8.08306 19.8455 8.08267 19.8455 8.08228C19.8455 8.0819 19.8455 8.08151 19.8455 8.08113C19.8455 8.08074 19.8455 8.08036 19.8455 8.07997C19.8455 8.07959 19.8455 8.0792 19.8455 8.07882C19.8455 8.07844 19.8455 8.07806 19.8455 8.07768C19.8455 8.07729 19.8455 8.07691 19.8455 8.07653C19.8455 8.07615 19.8455 8.07577 19.8455 8.07539C19.8455 8.07502 19.8455 8.07464 19.8455 8.07426C19.8455 8.07388 19.8455 8.07351 19.8455 8.07313C19.8455 8.07275 19.8455 8.07238 19.8455 8.072C19.8455 8.07163 19.8455 8.07125 19.8455 8.07088C19.8455 8.07051 19.8455 8.07013 19.8455 8.06976C19.8455 8.06939 19.8455 8.06902 19.8455 8.06864C19.8455 8.06827 19.8455 8.0679 19.8455 8.06753C19.8455 8.06716 19.8455 8.06679 19.8455 8.06642C19.8455 8.06606 19.8455 8.06569 19.8455 8.06532C19.8455 8.06495 19.8455 8.06458 19.8455 8.06422C19.8455 8.06385 19.8455 8.06349 19.8455 8.06312C19.8455 8.06276 19.8455 8.06239 19.8455 8.06203C19.8455 8.06166 19.8455 8.0613 19.8455 8.06094C19.8455 8.06057 19.8455 8.06021 19.8455 8.05985C19.8455 8.05949 19.8455 8.05913 19.8455 8.05877C19.8455 8.05841 19.8455 8.05805 19.8455 8.05769C19.8455 8.05733 19.8455 8.05697 19.8455 8.05661C19.8455 8.05625 19.8455 8.0559 19.8455 8.05554C19.8455 8.05518 19.8455 8.05483 19.8455 8.05447C19.8455 8.05411 19.8455 8.05376 19.8455 8.0534C19.8455 8.05305 19.8455 8.0527 19.8455 8.05234C19.8455 8.05199 19.8455 8.05164 19.8455 8.05128C19.8455 8.05093 19.8455 8.05058 19.8455 8.05023C19.8455 8.04988 19.8455 8.04952 19.8455 8.04917C19.8455 8.04882 19.8455 8.04847 19.8455 8.04813C19.8455 8.04778 19.8455 8.04743 19.8455 8.04708C19.8455 8.04673 19.8455 8.04638 19.8455 8.04604C19.8455 8.04569 19.8455 8.04534 19.8455 8.045C19.8455 8.04465 19.8455 8.04431 19.8455 8.04396C19.8455 8.04362 19.8455 8.04327 19.8455 8.04293C19.8455 8.04259 19.8455 8.04224 19.8455 8.0419C19.8455 8.04156 19.8455 8.04122 19.8455 8.04087C19.8455 8.04053 19.8455 8.04019 19.8455 8.03985C19.8455 8.03951 19.8455 8.03917 19.8455 8.03883C19.8455 8.03849 19.8455 8.03815 19.8455 8.03781C19.8455 8.03748 19.8455 8.03714 19.8455 8.0368C19.8455 8.03646 19.8455 8.03613 19.8455 8.03579C19.8455 8.03545 19.8455 8.03512 19.8455 8.03478C19.8455 8.03445 19.8455 8.03411 19.8455 8.03378C19.8455 8.03344 19.8455 8.03311 19.8455 8.03277C19.8455 8.03244 19.8455 8.03211 19.8455 8.03178C19.8455 8.03144 19.8455 8.03111 19.8455 8.03078C19.8455 8.03045 19.8455 8.03012 19.8455 8.02979C19.8455 8.02946 19.8455 8.02913 19.8455 8.0288C19.8455 8.02847 19.8455 8.02814 19.8455 8.02781C19.8455 8.02748 19.8455 8.02715 19.8455 8.02683C19.8455 8.0265 19.8455 8.02617 19.8455 8.02584C19.8455 8.02552 19.8455 8.02519 19.8455 8.02487C19.8455 8.02454 19.8455 8.02421 19.8455 8.02389C19.8455 8.02357 19.8455 8.02324 19.8455 8.02292C19.8455 8.02259 19.8455 8.02227 19.8455 8.02195C19.8455 8.02162 19.8455 8.0213 19.8455 8.02098C19.8455 8.02066 19.8455 8.02034 19.8455 8.02001C19.8455 8.01969 19.8455 8.01937 19.8455 8.01905C19.8455 8.01873 19.8455 8.01841 19.8455 8.01809C19.8455 8.01777 19.8455 8.01745 19.8455 8.01714C19.8455 8.01682 19.8455 8.0165 19.8455 8.01618C19.8455 8.01586 19.8455 8.01555 19.8455 8.01523C19.8455 8.01491 19.8455 8.0146 19.8455 8.01428C19.8455 8.01397 19.8455 8.01365 19.8455 8.01333C19.8455 8.01302 19.8455 8.01271 19.8455 8.01239C19.8455 8.01208 19.8455 8.01176 19.8455 8.01145C19.8455 8.01114 19.8455 8.01082 19.8455 8.01051C19.8455 8.0102 19.8455 8.00989 19.8455 8.00957C19.8455 8.00926 19.8455 8.00895 19.8455 8.00864C19.8455 8.00833 19.8455 8.00802 19.8455 8.00771C19.8455 8.0074 19.8455 8.00709 19.8455 8.00678C19.8455 8.00647 19.8455 8.00616 19.8455 8.00585C19.8455 8.00554 19.8455 8.00524 19.8455 8.00493C19.8455 8.00462 19.8455 8.00431 19.8455 8.00401C19.8455 8.0037 19.8455 8.00339 19.8455 8.00309C19.8455 8.00278 19.8455 8.00248 19.8455 8.00217C19.8455 8.00186 19.8455 8.00156 19.8455 8.00126C19.8455 8.00095 19.8455 8.00065 19.8455 8.00034C19.8455 8.00004 19.8455 7.99973 19.8455 7.99943C19.8455 7.99913 19.8455 7.99883 19.8455 7.99852C19.8455 7.99822 19.8455 7.99792 19.8455 7.99762C19.8455 7.99732 19.8455 7.99701 19.8455 7.99671C19.8455 7.99641 19.8455 7.99611 19.8455 7.99581C19.8455 7.99551 19.8455 7.99521 19.8455 7.99491C19.8455 7.99461 19.8455 7.99431 19.8455 7.99401C19.8455 7.99372 19.8455 7.99342 19.8455 7.99312C19.8455 7.99282 19.8455 7.99252 19.8455 7.99223C19.8455 7.99193 19.8455 7.99163 19.8455 7.99133C19.8455 7.99104 19.8455 7.99074 19.8455 7.99044C19.8455 7.99015 19.8455 7.98985 19.8455 7.98956C19.8455 7.98926 19.8455 7.98897 19.8455 7.98867C19.8455 7.98838 19.8455 7.98808 19.8455 7.98779C19.8455 7.98749 19.8455 7.9872 19.8455 7.98691C19.8455 7.98661 19.8455 7.98632 19.8455 7.98603C19.8455 7.98574 19.8455 7.98544 19.8455 7.98515C19.8455 7.98486 19.8455 7.98457 19.8455 7.98427C19.8455 7.98398 19.8455 7.98369 19.8455 7.9834C19.8455 7.98311 19.8455 7.98282 19.8455 7.98253C19.8455 7.98224 19.8455 7.98195 19.8455 7.98166C19.8455 7.98137 19.8455 7.98108 19.8455 7.98079C19.8455 7.9805 19.8455 7.98021 19.8455 7.97992C19.8455 7.97963 19.8455 7.97935 19.8455 7.97906C19.8455 7.97877 19.8455 7.97848 19.8455 7.9782C19.8455 7.97791 19.8455 7.97762 19.8455 7.97733C19.8455 7.97705 19.8455 7.97676 19.8455 7.97647C19.8455 7.97619 19.8455 7.9759 19.8455 7.97562C19.8455 7.97533 19.8455 7.97504 19.8455 7.97476C19.8455 7.97447 19.8455 7.97419 19.8455 7.9739C19.8455 7.97362 19.8455 7.97334 19.8455 7.97305C19.8455 7.97277 19.8455 7.97248 19.8455 7.9722C19.8455 7.97192 19.8455 7.97163 19.8455 7.97135C19.8455 7.97107 19.8455 7.97078 19.8455 7.9705C19.8455 7.97022 19.8455 7.96994 19.8455 7.96965C19.8455 7.96937 19.8455 7.96909 19.8455 7.96881C19.8455 7.96853 19.8455 7.96824 19.8455 7.96796C19.8455 7.96768 19.8455 7.9674 19.8455 7.96712C19.8455 7.96684 19.8455 7.96656 19.8455 7.96628C19.8455 7.966 19.8455 7.96572 19.8455 7.96544C19.8455 7.96516 19.8455 7.96488 19.8455 7.9646C19.8455 7.96432 19.8455 7.96404 19.8455 7.96376C19.8455 7.96349 19.8455 7.96321 19.8455 7.96293C19.8455 7.96265 19.8455 7.96237 19.8455 7.96209C19.8455 7.96182 19.8455 7.96154 19.8455 7.96126C19.8455 7.96098 19.8455 7.96071 19.8455 7.96043C19.8455 7.96015 19.8455 7.95987 19.8455 7.9596C19.8455 7.95932 19.8455 7.95904 19.8455 7.95877C19.8455 7.95849 19.8455 7.95822 19.8455 7.95794C19.8455 7.95766 19.8455 7.95739 19.8455 7.95711C19.8455 7.95684 19.8455 7.95656 19.8455 7.95629C19.8455 7.95601 19.8455 7.95574 19.8455 7.95546C19.8455 7.95519 19.8455 7.95491 19.8455 7.95464C19.8455 7.95436 19.8455 7.95409 19.8455 7.95382C19.8455 7.95354 19.8455 7.95327 19.8455 7.95299C19.8455 7.95272 19.8455 7.95245 19.8455 7.95217C19.8455 7.9519 19.8455 7.95163 19.8455 7.95135C19.8455 7.95108 19.8455 7.95081 19.8455 7.95054C19.8455 7.95026 19.8455 7.94999 19.8455 7.94972C19.8455 7.94945 19.8455 7.94917 19.8455 7.9489C19.8455 7.94863 19.8455 7.94836 19.8455 7.94809C19.8455 7.94782 19.8455 7.94754 19.8455 7.94727C19.8455 7.947 19.8455 7.94673 19.8455 7.94646C19.8455 7.94619 19.8455 7.94592 19.8455 7.94565C19.8455 7.94538 19.8455 7.9451 19.8455 7.94483C19.8455 7.94456 19.8455 7.94429 19.8455 7.94402C19.8455 7.94375 19.8455 7.94348 19.8455 7.94321C19.8455 7.94294 19.8455 7.94267 19.8455 7.9424C19.8455 7.94213 19.8455 7.94186 19.8455 7.94159C19.8455 7.94133 19.8455 7.94106 19.8455 7.94079C19.8455 7.94052 19.8455 7.94025 19.8455 7.93998C19.8455 7.93971 19.8455 7.93944 19.8455 7.93917C19.8455 7.9389 19.8455 7.93864 19.8455 7.93837C19.8455 7.9381 19.8455 7.93783 19.8455 7.93756C19.8455 7.93729 19.8455 7.93703 19.8455 7.93676C19.8455 7.93649 19.8455 7.93622 19.8455 7.93595C19.8455 7.93569 19.8455 7.93542 19.8455 7.93515C19.8455 7.93488 19.8455 7.93462 19.8455 7.93435C19.8455 7.93408 19.8455 7.93381 19.8455 7.93355C19.8455 7.93328 19.8455 7.93301 19.8455 7.93274C19.8455 7.93248 19.8455 7.93221 19.8455 7.93194C19.8455 7.93168 19.8455 7.93141 19.8455 7.93114C19.8455 7.93088 19.8455 7.93061 19.8455 7.93034C19.8455 7.93008 19.8455 7.92981 19.8455 7.92954C19.8455 7.92928 19.8455 7.92901 19.8455 7.92874C19.8455 7.92848 19.8455 7.92821 19.8455 7.92795C19.8455 7.92768 19.8455 7.92741 19.8455 7.92715C19.8455 7.92688 19.8455 7.92661 19.8455 7.92635C19.8455 7.92608 19.8455 7.92582 19.8455 7.92555C19.8455 7.92529 19.8455 7.92502 19.8455 7.92475C19.8455 7.92449 19.8455 7.92422 19.8455 7.92396C19.8455 7.92369 19.8455 7.92343 19.8455 7.92316C19.8455 7.92289 19.8455 7.92263 19.8455 7.92236C19.8455 7.9221 19.8455 7.92183 19.8455 7.92157C19.8455 7.9213 19.8455 7.92104 19.8455 7.92077C19.8455 7.92051 19.8455 7.92024 19.8455 7.91998C19.8455 7.91971 19.8455 7.91945 19.8455 7.91918C19.8455 7.91891 19.8455 7.91865 19.8455 7.91838C19.8455 7.91812 19.8455 7.91785 19.8455 7.91759C19.8455 7.91732 19.8455 7.91706 19.8455 7.91679C19.8455 7.91653 19.8455 7.91626 19.8455 7.916C19.8455 7.91573 19.8455 7.91547 19.8455 7.9152C19.8455 7.91494 19.8455 7.91467 19.8455 7.91441C19.8455 7.91414 19.8455 7.91388 19.8455 7.91361C19.8455 7.91335 19.8455 7.91308 19.8455 7.91282C19.8455 7.91255 19.8455 7.91229 19.8455 7.91202C19.8455 7.91176 19.8455 7.91149 19.8455 7.91123C19.8455 7.91096 19.8455 7.9107 19.8455 7.91043C19.8455 7.91017 19.8455 7.9099 19.8455 7.90964C19.8455 7.90937 19.8455 7.90911 19.8455 7.90884C19.8455 7.90858 19.8455 7.90831 19.8455 7.90805C19.8455 7.90778 19.8455 7.90752 19.8455 7.90725C19.8455 7.90699 19.8455 7.90672 19.8455 7.90646C19.8455 7.90619 19.8455 7.90593 19.8455 7.90566C19.8455 7.90539 19.8455 7.90513 19.8455 7.90486C19.8455 7.9046 19.8455 7.90433 19.8455 7.90407C19.8455 7.9038 19.8455 7.90354 19.8455 7.90327C19.8455 7.903 19.8455 7.90274 19.8455 7.90247C19.8455 7.90221 19.8455 7.90194 19.8455 7.90168C19.8455 7.90141 19.8455 7.90114 19.8455 7.90088C19.8455 7.90061 19.8455 7.90035 19.8455 7.90008C19.8455 7.89981 19.8455 7.89955 19.8455 7.89928C19.8455 7.89902 19.8455 7.89875 19.8455 7.89848C19.8455 7.89822 19.8455 7.89795 19.8455 7.89768C19.8455 7.89742 19.8455 7.89715 19.8455 7.89688C19.8455 7.89662 19.8455 7.89635 19.8455 7.89608C19.8455 7.89582 19.8455 7.89555 19.8455 7.89528C19.8455 7.89502 19.8455 7.89475 19.8455 7.89448C19.8455 7.89422 19.8455 7.89395 19.8455 7.89368C19.8455 7.89341 19.8455 7.89315 19.8455 7.89288C19.8455 7.89261 19.8455 7.89234 19.8455 7.89208C19.8455 7.89181 19.8455 7.89154 19.8455 7.89127C19.8455 7.89101 19.8455 7.89074 19.8455 7.89047C19.8455 7.8902 19.8455 7.88993 19.8455 7.88967C19.8455 7.8894 19.8455 7.88913 19.8455 7.88886C19.8455 7.88859 19.8455 7.88832 19.8455 7.88806C19.8455 7.88779 19.8455 7.88752 19.8455 7.88725C19.8455 7.88698 19.8455 7.88671 19.8455 7.88644C19.8455 7.88617 19.8455 7.8859 19.8455 7.88563C19.8455 7.88536 19.8455 7.8851 19.8455 7.88483C19.8455 7.88456 19.8455 7.88429 19.8455 7.88402C19.8455 7.88375 19.8455 7.88348 19.8455 7.88321C19.8455 7.88294 19.8455 7.88267 19.8455 7.8824C19.8455 7.88212 19.8455 7.88185 19.8455 7.88158C19.8455 7.88131 19.8455 7.88104 19.8455 7.88077C19.8455 7.8805 19.8455 7.88023 19.8455 7.87996C19.8455 7.87969 19.8455 7.87941 19.8455 7.87914C19.8455 7.87887 19.8455 7.8786 19.8455 7.87833C19.8455 7.87806 19.8455 7.87778 19.8455 7.87751C19.8455 7.87724 19.8455 7.87697 19.8455 7.87669C19.8455 7.87642 19.8455 7.87615 19.8455 7.87588C19.8455 7.8756 19.8455 7.87533 19.8455 7.87506C19.8455 7.87478 19.8455 7.87451 19.8455 7.87424C19.8455 7.87396 19.8455 7.87369 19.8455 7.87341C19.8455 7.87314 19.8455 7.87287 19.8455 7.87259C19.8455 7.87232 19.8455 7.87204 19.8455 7.87177C19.8455 7.87149 19.8455 7.87122 19.8455 7.87094C19.8455 7.87067 19.8455 7.87039 19.8455 7.87012C19.8455 7.86984 19.8455 7.86957 19.8455 7.86929C19.8455 7.86902 19.8455 7.86874 19.8455 7.86846C19.8455 7.86819 19.8455 7.86791 19.8455 7.86763C19.8455 7.86736 19.8455 7.86708 19.8455 7.8668C19.8455 7.86653 19.8455 7.86625 19.8455 7.86597C19.8455 7.86569 19.8455 7.86542 19.8455 7.86514C19.8455 7.86486 19.8455 7.86458 19.8455 7.8643C19.8455 7.86403 19.8455 7.86375 19.8455 7.86347C19.8455 7.86319 19.8455 7.86291 19.8455 7.86263C19.8455 7.86235 19.8455 7.86207 19.8455 7.86179C19.8455 7.86151 19.8455 7.86123 19.8455 7.86095C19.8455 7.86067 19.8455 7.86039 19.8455 7.86011C19.8455 7.85983 19.8455 7.85955 19.8455 7.85927C19.8455 7.85899 19.8455 7.85871 19.8455 7.85843C19.8455 7.85814 19.8455 7.85786 19.8455 7.85758C19.8455 7.8573 19.8455 7.85702 19.8455 7.85673C19.8455 7.85645 19.8455 7.85617 19.8455 7.85588C19.8455 7.8556 19.8455 7.85532 19.8455 7.85503C19.8455 7.85475 19.8455 7.85447 19.8455 7.85418C19.8455 7.8539 19.8455 7.85361 19.8455 7.85333C19.8455 7.85305 19.8455 7.85276 19.8455 7.85248C19.8455 7.85219 19.8455 7.8519 19.8455 7.85162C19.8455 7.85133 19.8455 7.85105 19.8455 7.85076C19.8455 7.85047 19.8455 7.85019 19.8455 7.8499C19.8455 7.84961 19.8455 7.84933 19.8455 7.84904C19.8455 7.84875 19.8455 7.84846 19.8455 7.84818C19.8455 7.84789 19.8455 7.8476 19.8455 7.84731C19.8455 7.84702 19.8455 7.84673 19.8455 7.84645C19.8455 7.84616 19.8455 7.84587 19.8455 7.84558C19.8455 7.84529 19.8455 7.845 19.8455 7.84471C19.8455 7.84442 19.8455 7.84413 19.8455 7.84384C19.8455 7.84354 19.8455 7.84325 19.8455 7.84296C19.8455 7.84267 19.8455 7.84238 19.8455 7.84209C19.8455 7.84179 19.8455 7.8415 19.8455 7.84121C19.8455 7.84092 19.8455 7.84062 19.8455 7.84033C19.8455 7.84004 19.8455 7.83974 19.8455 7.83945C19.8455 7.83915 19.8455 7.83886 19.8455 7.83857C19.8455 7.83827 19.8455 7.83798 19.8455 7.83768C19.8455 7.83739 19.8455 7.83709 19.8455 7.83679C19.8455 7.8365 19.8455 7.8362 19.8455 7.8359C19.8455 7.83561 19.8455 7.83531 19.8455 7.83501C19.8455 7.83472 19.8455 7.83442 19.8455 7.83412C19.8455 7.83382 19.8455 7.83352 19.8455 7.83323C19.8455 7.83293 19.8455 7.83263 19.8455 7.83233C19.8455 7.83203 19.8455 7.83173 19.8455 7.83143C19.8455 7.83113 19.8455 7.83083 19.8455 7.83053C19.8455 7.83023 19.8455 7.82992 19.8455 7.82962C19.8455 7.82932 19.8455 7.82902 19.8455 7.82872C19.8455 7.82842 19.8455 7.82811 19.8455 7.82781C19.8455 7.82751 19.8455 7.8272 19.8455 7.8269C19.8455 7.8266 19.8455 7.82629 19.8455 7.82599C19.8455 7.82568 19.8455 7.82538 19.8455 7.82507C19.8455 7.82477 19.8455 7.82446 19.8455 7.82415C19.8455 7.82385 19.8455 7.82354 19.8455 7.82324C19.8455 7.82293 19.8455 7.82262 19.8455 7.82231C19.8455 7.82201 19.8455 7.8217 19.8455 7.82139C19.8455 7.82108 19.8455 7.82077 19.8455 7.82046C19.8455 7.82015 19.8455 7.81984 19.8455 7.81953C19.8455 7.81922 19.8455 7.81891 19.8455 7.8186C19.8455 7.81829 19.8455 7.81798 19.8455 7.81767C19.8455 7.81736 19.8455 7.81705 19.8455 7.81673C19.8455 7.81642 19.8455 7.81611 19.8455 7.8158C19.8455 7.81548 19.8455 7.81517 19.8455 7.81485C19.8455 7.81454 19.8455 7.81423 19.8455 7.81391C19.8455 7.8136 19.8455 7.81328 19.8455 7.81296C19.8455 7.81265 19.8455 7.81233 19.8455 7.81202C19.8455 7.8117 19.8455 7.81138 19.8455 7.81106C19.8455 7.81075 19.8455 7.81043 19.8455 7.81011C19.8455 7.80979 19.8455 7.80947 19.8455 7.80915C19.8455 7.80884 19.8455 7.80852 19.8455 7.8082C19.8455 7.80788 19.8455 7.80755 19.8455 7.80723C19.8455 7.80691 19.8455 7.80659 19.8455 7.80627C19.8455 7.80595 19.8455 7.80562 19.8455 7.8053C19.8455 7.80498 19.8455 7.80466 19.8455 7.80433C19.8455 7.80401 19.8455 7.80368 19.8455 7.80336C19.8455 7.80303 19.8455 7.80271 19.8455 7.80238C19.8455 7.80206 19.8455 7.80173 19.8455 7.80141C19.8455 7.80108 19.8455 7.80075 19.8455 7.80042C19.8455 7.8001 19.8455 7.79977 19.8455 7.79944C19.8455 7.79911 19.8455 7.79878 19.8455 7.79845C19.8455 7.79812 19.8455 7.79779 19.8455 7.79746C19.8455 7.79713 19.8455 7.7968 19.8455 7.79647C19.8455 7.79614 19.8455 7.79581 19.8455 7.79548C19.8455 7.79514 19.8455 7.79481 19.8455 7.79448C19.8455 7.79414 19.8455 7.79381 19.8455 7.79348C19.8455 7.79314 19.8455 7.79281 19.8455 7.79247C19.8455 7.79214 19.8455 7.7918 19.8455 7.79146C19.8455 7.79113 19.8455 7.79079 19.8455 7.79045C19.8455 7.79012 19.8455 7.78978 19.8455 7.78944C19.8455 7.7891 19.8455 7.78876 19.8455 7.78842C19.8455 7.78808 19.8455 7.78774 19.8455 7.7874C19.8455 7.78706 19.8455 7.78672 19.8455 7.78638C19.8455 7.78604 19.8455 7.7857 19.8455 7.78536C19.8455 7.78501 19.8455 7.78467 19.8455 7.78433C19.8455 7.78398 19.8455 7.78364 19.8455 7.78329C19.8455 7.78295 19.8455 7.7826 19.8455 7.78226C19.8455 7.78191 19.8455 7.78157 19.8455 7.78122C19.8455 7.78087 19.8455 7.78053 19.8455 7.78018C19.8455 7.77983 19.8455 7.77948 19.8455 7.77913C19.8455 7.77878 19.8455 7.77843 19.8455 7.77808C19.8455 7.77773 19.8455 7.77738 19.8455 7.77703C19.8455 7.77668 19.8455 7.77633 19.8455 7.77598C19.8455 7.77562 19.8455 7.77527 19.8455 7.77492C19.8455 7.77456 19.8455 7.77421 19.8455 7.77386C19.8455 7.7735 19.8455 7.77315 19.8455 7.77279C19.8455 7.77244 19.8455 7.77208 19.8455 7.77172C19.8455 7.77137 19.8455 7.77101 19.8455 7.77065C19.8455 7.77029 19.8455 7.76993 19.8455 7.76957C19.8455 7.76921 19.8455 7.76886 19.8455 7.76849C19.8455 7.76813 19.8455 7.76777 19.8455 7.76741C19.8455 7.76705 19.8455 7.76669 19.8455 7.76633C19.8455 7.76596 19.8455 7.7656 19.8455 7.76524C19.8455 7.76487 19.8455 7.76451 19.8455 7.76414C19.8455 7.76378 19.8455 7.76341 19.8455 7.76305C19.8455 7.76268 19.8455 7.76231 19.8455 7.76195C19.8455 7.76158 19.8455 7.76121 19.8455 7.76084C19.8455 7.76047 19.8455 7.7601 19.8455 7.75973C19.8455 7.75936 19.8455 7.75899 19.8455 7.75862C19.8455 7.75825 19.8455 7.75788 19.8455 7.75751C19.8455 7.75713 19.8455 7.75676 19.8455 7.75639C19.8455 7.75601 19.8455 7.75564 19.8455 7.75526C19.8455 7.75489 19.8455 7.75451 19.8455 7.75414C19.8455 7.75376 19.8455 7.75339 19.8455 7.75301C19.8455 7.75263 19.8455 7.75225 19.8455 7.75187C19.8455 7.7515 19.8455 7.75112 19.8455 7.75074C19.8455 7.75036 19.8455 7.74998 19.8455 7.74959C19.8455 7.74921 19.8455 7.74883 19.8455 7.74845C19.8455 7.74807 19.8455 7.74768 19.8455 7.7473C19.8455 7.74692 19.8455 7.74653 19.8455 7.74615C19.8455 7.74576 19.8455 7.74537 19.8455 7.74499C19.8455 7.7446 19.8455 7.74421 19.8455 7.74383C19.8455 7.74344 19.8455 7.74305 19.8455 7.74266C19.8455 7.74227 19.8455 7.74188 19.8455 7.74149C19.8455 7.7411 19.8455 7.74071 19.8455 7.74032C19.8455 7.73993 19.8455 7.73953 19.8455 7.73914C19.8455 7.73875 19.8455 7.73835 19.8455 7.73796C19.8455 7.73757 19.8455 7.73717 19.8455 7.73677C19.8455 7.73638 19.8455 7.73598 19.8455 7.73558C19.8455 7.73519 19.8455 7.73479 19.8455 7.73439C19.8455 7.73399 19.8455 7.73359 19.8455 7.73319C19.8455 7.73279 19.8455 7.73239 19.8455 7.73199C19.8455 7.73159 19.8455 7.73119 19.8455 7.73078C19.8455 7.73038 19.8455 7.72998 19.8455 7.72957C19.8455 7.72917 19.8455 7.72876 19.8455 7.72836C19.8455 7.72795 19.8455 7.72755 19.8455 7.72714H19.2455ZM19.5455 8.27259C19.6748 8.54328 19.675 8.5432 19.6751 8.54313C19.6752 8.5431 19.6753 8.54303 19.6754 8.54297C19.6757 8.54287 19.6759 8.54276 19.6761 8.54265C19.6766 8.54242 19.6771 8.54218 19.6776 8.54193C19.6786 8.54141 19.6798 8.54084 19.6811 8.5402C19.6836 8.53893 19.6866 8.5374 19.69 8.53561C19.6968 8.53203 19.7053 8.52739 19.7152 8.52164C19.7349 8.51017 19.7606 8.49407 19.7897 8.47291C19.8474 8.43096 19.9221 8.36667 19.9911 8.27587C20.1361 8.08488 20.2386 7.79725 20.1452 7.41843L19.5626 7.56197C19.6093 7.75124 19.5575 7.85481 19.5133 7.91299C19.4876 7.94678 19.4589 7.97158 19.437 7.98756C19.4262 7.99536 19.4179 8.00044 19.4137 8.00292C19.4116 8.00413 19.4106 8.00465 19.4109 8.00449C19.411 8.00441 19.4115 8.00415 19.4124 8.00372C19.4128 8.00351 19.4133 8.00325 19.414 8.00295C19.4143 8.0028 19.4146 8.00264 19.415 8.00246C19.4151 8.00238 19.4153 8.00229 19.4155 8.0022C19.4156 8.00215 19.4158 8.00208 19.4158 8.00206C19.416 8.00199 19.4161 8.00191 19.5455 8.27259ZM20.0661 7.70233C20.2501 7.51827 20.3314 7.25897 20.29 7.00577L19.6978 7.10266C19.7084 7.16746 19.6877 7.23216 19.6418 7.27807L20.0661 7.70233ZM20.7336 19.0709L18.1616 18.1759L17.9644 18.7426L20.5364 19.6376L20.7336 19.0709ZM18.1624 18.1762C17.8599 18.07 17.5259 18.156 17.3098 18.3895L17.7502 18.797C17.8062 18.7365 17.8901 18.7165 17.9636 18.7423L18.1624 18.1762ZM17.3088 18.3906C16.0968 19.7131 14.565 20.4273 13 20.4273V21.0273C14.755 21.0273 16.4412 20.2254 17.7512 18.796L17.3088 18.3906ZM13 20.4273C11.4351 20.4273 9.90321 19.7131 8.69125 18.3896L8.24875 18.7948C9.55875 20.2254 11.245 21.0273 13 21.0273V20.4273ZM8.69022 18.3885C8.47334 18.1541 8.13944 18.0709 7.839 18.1747L8.03496 18.7418C8.11056 18.7156 8.19469 18.7364 8.24978 18.796L8.69022 18.3885ZM7.83839 18.1749L5.26641 19.0699L5.46359 19.6365L8.03558 18.7416L7.83839 18.1749ZM5.26651 19.0698C2.46267 20.0444 0.7 22.4024 0.7 25.2272H1.3C1.3 22.678 2.8813 20.5341 5.46349 19.6366L5.26651 19.0698ZM0.7 25.2272C0.7 25.6689 1.05833 26.0272 1.50002 26.0272V25.4272C1.3897 25.4272 1.3 25.3375 1.3 25.2272H0.7ZM1.50002 26.0272H24.5V25.4272H1.50002V26.0272ZM24.5 26.0272C24.9417 26.0272 25.3 25.6689 25.3 25.2272H24.7C24.7 25.3375 24.6103 25.4272 24.5 25.4272V26.0272ZM25.3 25.2272C25.3 22.4024 23.5373 20.0454 20.7335 19.0709L20.5365 19.6376C23.1188 20.5351 24.7 22.6781 24.7 25.2272L25.3 25.2272ZM2.32263 24.7557C2.50339 22.858 3.78395 21.28 5.79155 20.5816L5.59441 20.0149C3.38805 20.7825 1.93055 22.5445 1.72534 24.6988L2.32263 24.7557ZM5.79155 20.5816L8.05956 19.7926L7.86241 19.2259L5.59441 20.0149L5.79155 20.5816ZM7.74774 19.7203C9.21599 21.204 11.0686 22.0272 13 22.0272V21.4272C11.2454 21.4272 9.54201 20.6805 8.17423 19.2982L7.74774 19.7203ZM13 22.0272C14.9314 22.0272 16.784 21.204 18.2523 19.7203L17.8258 19.2982C16.458 20.6804 14.7546 21.4272 13 21.4272V22.0272ZM17.9404 19.7926L20.2084 20.5816L20.4056 20.0149L18.1376 19.2259L17.9404 19.7926ZM20.2084 20.5816C22.216 21.28 23.4966 22.858 23.6774 24.7557L24.2747 24.6988C24.0695 22.5445 22.612 20.7825 20.4056 20.0149L20.2084 20.5816ZM23.976 24.4272H2.02398V25.0272H23.976V24.4272Z" fill="none"></path>
</svg>