<svg xmlns:xlink="http://www.w3.org/1999/xlink" width="14" height="14" viewBox="0 0 14 14" fill="none" xmlns="http://www.w3.org/2000/svg">
<path d="M2.68249 0.178419C2.32182 -0.0386927 1.89197 -0.0581069 1.51709 0.122637L7.80265 6.4216L9.85783 4.35686L2.68249 0.178419ZM0.939581 0.705611C0.860284 0.873504 0.817627 1.06026 0.817627 1.25249V12.7747C0.817627 12.9678 0.860557 13.1518 0.940675 13.3161L7.22378 7.00321L0.939581 0.705611ZM7.8035 7.584L1.52805 13.8893C1.69458 13.9664 1.87177 14 2.04868 14C2.26716 14 2.48509 13.9478 2.68252 13.8291L9.85923 9.64437L7.8035 7.584ZM12.5906 5.94828C12.5882 5.94664 12.5854 5.945 12.583 5.94363L10.5907 4.78342L8.3821 7.00239L10.592 9.21698C10.592 9.21698 12.5882 8.05322 12.5906 8.05185C12.9611 7.82681 13.1823 7.43361 13.1823 6.99993C13.1823 6.56625 12.9611 6.17305 12.5906 5.94828Z" fill="#0957C3"></path>
</svg>