<svg xmlns:xlink="http://www.w3.org/1999/xlink" width="20" height="21" viewBox="0 0 20 21" fill="none" xmlns="http://www.w3.org/2000/svg">
<path d="M10.4911 10.9287L10.4911 10.9287L10.4919 10.9297L10.4947 10.9334C11.071 11.7092 11.3825 12.6454 11.3825 13.6298C11.3825 14.6103 11.0727 15.5427 10.5005 16.3169L4.1615 9.97779C4.93556 9.40559 5.86796 9.09576 6.84861 9.09576C8.05973 9.09576 9.19814 9.56729 10.0546 10.4238C10.2136 10.5828 10.3592 10.7516 10.4911 10.9287ZM3.64258 16.8358L3.60722 16.8711L3.64258 16.8358C2.78608 15.9794 2.31456 14.8409 2.31456 13.6298C2.31456 12.6492 2.62444 11.7168 3.19658 10.9427L9.53565 17.2818C8.7616 17.854 7.8292 18.1638 6.84855 18.1638C5.63743 18.1638 4.49901 17.6923 3.64258 16.8358ZM14.673 0.95C12.2834 0.95 10.3393 2.89407 10.3393 5.2837V8.87528C9.33315 8.13325 8.12191 7.73121 6.84855 7.73121C5.27306 7.73121 3.79165 8.34486 2.67765 9.45886C1.56365 10.5729 0.95 12.0543 0.95 13.6298C0.95 15.2052 1.56365 16.6866 2.67765 17.8006C3.79165 18.9146 5.27306 19.5283 6.84855 19.5283C8.38072 19.5283 9.82316 18.9469 10.926 17.8905C11.6773 19.1805 13.0752 20.05 14.673 20.05C17.0627 20.05 19.0067 18.1059 19.0067 15.7163V5.2837C19.0067 2.89407 17.0627 0.95 14.673 0.95ZM14.673 2.31456C16.3101 2.31456 17.6422 3.64654 17.6422 5.2837V9.81775H11.7039V5.2837C11.7039 3.64654 13.0359 2.31456 14.673 2.31456ZM14.673 18.6854C13.3861 18.6854 12.2882 17.862 11.8773 16.7143C12.4433 15.7953 12.7472 14.7361 12.7472 13.6298C12.7472 12.7714 12.5649 11.9408 12.2188 11.1823H17.6422V15.7164C17.6422 17.3535 16.3102 18.6854 14.673 18.6854Z" stroke="#A7AEB0" stroke-width="0.1px" fill="#A7AEB0"></path>
</svg>