<svg xmlns:xlink="http://www.w3.org/1999/xlink" xmlns="http://www.w3.org/2000/svg" width="65" height="18" viewBox="0 0 65 18" fill="none">
<path d="M0 8.5C0 3.78178 3.78178 0 8.5 0C13.1822 0 17 3.78178 17 8.5C17 13.1822 13.2182 17 8.5 17C7.56356 17 6.69915 16.8559 5.83475 16.5678C6.44703 13.0742 8.64407 10.2288 11.5614 9.00424C11.9216 9.40042 12.4258 9.65254 13.0021 9.65254C14.0466 9.65254 14.875 8.82415 14.875 7.77966C14.875 6.73517 14.0466 5.90678 13.0021 5.90678C11.9576 5.90678 11.1292 6.73517 11.1292 7.77966C7.38347 8.89619 4.39407 11.4894 2.84534 14.839C2.3411 14.4068 1.9089 13.9025 1.54873 13.3623C1.62076 10.0847 3.24153 7.23941 5.65466 5.58263C6.01483 5.97881 6.51907 6.23093 7.05932 6.23093C8.10381 6.23093 8.9322 5.40254 8.9322 4.35805C8.9322 3.31356 8.10381 2.48517 7.05932 2.48517C6.01483 2.48517 5.18644 3.31356 5.18644 4.35805C5.18644 4.43008 5.18644 4.4661 5.18644 4.53814C2.91737 5.25847 1.08051 6.8072 0 8.82415C0 8.7161 0 8.60805 0 8.5Z" fill="#FFCB0A"/>
<path fill-rule="evenodd" clip-rule="evenodd" d="M59.7524 0.660762C58.2499 1.00794 57.1123 2.39666 57.1123 4.06536C57.1123 4.09896 57.123 4.14376 57.123 4.17736C59.4949 4.70373 60.6969 6.37243 60.6969 8.5787C60.6969 11.0538 58.7543 13.0584 56.3825 13.0584C54.0107 13.0584 51.7891 10.9978 51.7891 7.92914C51.7891 4.18856 54.8585 0.68316 59.2373 0.571167C59.3124 0.571167 59.4412 0.571167 59.57 0.582366C58.6148 0.212788 57.5631 0 56.4684 0C51.7783 0 47.9684 3.84138 47.9684 8.5899C47.9684 13.3272 51.7783 17.1798 56.4684 17.1798C61.1691 17.1798 64.9683 13.3384 64.9683 8.5899C64.9791 5.01731 62.8219 1.95989 59.7524 0.660762Z" fill="#F24A47"/>
<path fill-rule="evenodd" clip-rule="evenodd" d="M32.4844 0C27.7987 0 23.9844 3.81435 23.9844 8.5C23.9844 13.1856 27.7987 17 32.4844 17C37.17 17 40.9844 13.1856 40.9844 8.5C40.9844 3.81435 37.1894 0 32.4844 0ZM26.2691 7.45444C25.8044 7.29954 25.5333 6.79613 25.6882 6.31207C25.8431 5.84738 26.3466 5.57631 26.8306 5.73121L30.006 6.77677C30.4707 6.93166 30.7418 7.43508 30.5869 7.91913C30.432 8.38383 29.9286 8.6549 29.4445 8.5L26.2691 7.45444ZM31.5163 11.4043L29.5413 14.115C29.2509 14.5216 28.6894 14.5991 28.2828 14.3087C27.8762 14.0182 27.7987 13.4567 28.0892 13.0501L30.0641 10.3394C30.3545 9.9328 30.916 9.85535 31.3226 10.1458C31.7099 10.4362 31.8067 10.9977 31.5163 11.4043ZM32.5037 6.52506C32.0003 6.52506 31.5937 6.11845 31.5937 5.61503V2.26538C31.5937 1.76196 32.0003 1.35535 32.5037 1.35535C33.0072 1.35535 33.4138 1.76196 33.4138 2.26538V5.61503C33.3944 6.11845 32.9878 6.52506 32.5037 6.52506ZM36.7053 14.3087C36.2987 14.5991 35.7372 14.5023 35.4468 14.115L33.4718 11.4043C33.1814 10.9977 33.2782 10.4362 33.6655 10.1458C34.0721 9.85535 34.6336 9.95216 34.924 10.3394L36.899 13.0501C37.1894 13.4567 37.0926 14.0182 36.7053 14.3087ZM38.719 7.45444L35.5436 8.48064C35.0789 8.63554 34.5561 8.36446 34.4012 7.89977C34.2463 7.43508 34.5174 6.9123 34.9821 6.7574L38.1575 5.73121C38.6222 5.57631 39.145 5.84738 39.2999 6.31207C39.4548 6.77676 39.1837 7.29954 38.719 7.45444Z" fill="#00A8E7"/>
</svg>