<svg xmlns:xlink="http://www.w3.org/1999/xlink" width="34" height="17" viewBox="0 0 34 17" fill="none" xmlns="http://www.w3.org/2000/svg"><rect width="34" height="17" rx="4" fill="#FE5000"></rect><path d="M11.22 12H13.3V4.75H11.65V9.75L8.74 4.75H6.66V12H8.31V7L11.22 12ZM19.8492 10.31H18.3292C18.1392 10.63 17.7392 10.85 17.1192 10.85C16.5192 10.85 15.9292 10.49 15.8792 9.73H19.8692C19.9792 7.82 18.8792 6.46 17.0992 6.46C15.5292 6.46 14.2192 7.56 14.2192 9.28C14.2192 11.06 15.4192 12.13 17.1692 12.13C18.2492 12.13 19.3692 11.58 19.8492 10.31ZM15.8992 8.73C15.9892 8.02 16.5192 7.72 17.0992 7.72C17.7192 7.72 18.2092 8.06 18.2292 8.73H15.8992ZM24.8813 6.62H23.1813L22.5613 10.27L21.8513 6.62H20.1613L21.4013 12H23.3113L24.0313 8.03L24.7513 12H26.6713L27.9113 6.62H26.2213L25.5113 10.27L24.8813 6.62Z" fill="#FFFFFF"></path></svg>