<svg xmlns:xlink="http://www.w3.org/1999/xlink" xmlns="http://www.w3.org/2000/svg" id="Layer_1" viewBox="-420 222 118 118" width="100"  height="100" ><defs><linearGradient id="mp1_1" x1="-841.176" x2="-840.176" y1="565.624" y2="565.624" gradientUnits="userSpaceOnUse" gradientTransform="matrix(-84.922 84.792 -84.922 -84.792 -119772.332 23615.533)"><stop offset="0" stop-color="#09859D"></stop><stop offset="1" stop-color="#2DDEC1"></stop></linearGradient><linearGradient id="mp1_1" x1="-841.176" x2="-840.176" y1="565.624" y2="565.624" gradientUnits="userSpaceOnUse" gradientTransform="matrix(-84.922 84.792 -84.922 -84.792 -119772.332 23615.533)"><stop offset="0" stop-color="#09859D"></stop><stop offset="1" stop-color="#2DDEC1"></stop></linearGradient><linearGradient id="mp1_2" x1="-838.167" x2="-837.167" y1="565" y2="565" gradientUnits="userSpaceOnUse" gradientTransform="matrix(0 120.008 120.008 0 -68130.453 100807.727)"><stop offset="0" stop-color="#09859D"></stop><stop offset="1" stop-color="#2DDEC1"></stop></linearGradient><linearGradient id="mp1_3" x1="-838.167" x2="-837.167" y1="565" y2="565" gradientUnits="userSpaceOnUse" gradientTransform="matrix(0 120.008 120.008 0 -68148.008 100807.727)"><stop offset="0" stop-color="#09859D"></stop><stop offset="1" stop-color="#2DDEC1"></stop></linearGradient><linearGradient id="mp1_4" x1="-838.167" x2="-837.167" y1="565" y2="565" gradientUnits="userSpaceOnUse" gradientTransform="matrix(0 120.007 120.007 0 -68181.188 100806.883)"><stop offset="0" stop-color="#09859D"></stop><stop offset="1" stop-color="#2DDEC1"></stop></linearGradient></defs><style>.mp1_1{fill:url(#mp1_1);} .mp1_2{fill:url(#mp1_2);} .mp1_3{fill:url(#mp1_3);} .mp1_4{fill:url(#mp1_4);} .mp1_5{fill:url(#mp1_5);}</style><linearGradient id="mp1_1" x1="-841.176" x2="-840.176" y1="565.624" y2="565.624" gradientUnits="userSpaceOnUse" gradientTransform="matrix(-84.922 84.792 -84.922 -84.792 -119772.332 23615.533)"><stop offset="0" stop-color="#09859D"></stop><stop offset="1" stop-color="#2DDEC1"></stop></linearGradient><path id="mp1_1" d="M-320.5 269.9l-3.1-3.1-25.2 25.2 3.1 3.1 25.2-25.2z" class="mp1_1" fill="url(&quot;#mp1_1&quot;)"></path><linearGradient id="mp1_2" x1="-838.167" x2="-837.167" y1="565" y2="565" gradientUnits="userSpaceOnUse" gradientTransform="matrix(0 120.008 120.008 0 -68130.453 100807.727)"><stop offset="0" stop-color="#09859D"></stop><stop offset="1" stop-color="#2DDEC1"></stop></linearGradient><path id="mp1_2" d="M-325.9 296.6c-4 0-7-3.3-7-7s3.3-7 7-7c4 0 7 3.3 7 7s-2.9 7-7 7zm0-9.5c-1.5 0-2.6 1.1-2.6 2.6s1.1 2.6 2.6 2.6 2.6-1.1 2.6-2.6-1.1-2.6-2.6-2.6z" class="mp1_2" fill="url(&quot;#mp1_2&quot;)"></path><linearGradient id="mp1_3" x1="-838.167" x2="-837.167" y1="565" y2="565" gradientUnits="userSpaceOnUse" gradientTransform="matrix(0 120.008 120.008 0 -68148.008 100807.727)"><stop offset="0" stop-color="#09859D"></stop><stop offset="1" stop-color="#2DDEC1"></stop></linearGradient><path id="mp1_3" d="M-343.6 279.1c-4 0-7-3.3-7-7s3.3-7 7-7c4 0 7 3.3 7 7s-2.9 7-7 7zm0-9.5c-1.5 0-2.6 1.1-2.6 2.6s1.1 2.6 2.6 2.6 2.6-1.1 2.6-2.6-1.1-2.6-2.6-2.6z" class="mp1_3" fill="url(&quot;#mp1_3&quot;)"></path><linearGradient id="mp1_4" x1="-838.167" x2="-837.167" y1="565" y2="565" gradientUnits="userSpaceOnUse" gradientTransform="matrix(0 120.007 120.007 0 -68181.188 100806.883)"><stop offset="0" stop-color="#09859D"></stop><stop offset="1" stop-color="#2DDEC1"></stop></linearGradient><path id="mp1_4" d="M-377.3 305c-13.2 0-23.9-10.6-23.9-24.2 0-13.2 10.6-23.8 23.9-23.8 13.3 0 23.9 10.6 23.9 23.8.3 13.6-10.4 24.2-23.9 24.2zm0-35.9c-6.6 0-11.7 5.1-11.7 11.7s5.1 11.7 11.7 11.7 11.7-5.1 11.7-11.7c.4-6.2-5.1-11.7-11.7-11.7z" class="mp1_4" fill="url(&quot;#mp1_4&quot;)"></path><linearGradient id="mp1_5" x1="-838.167" x2="-837.167" y1="565" y2="565" gradientUnits="userSpaceOnUse" gradientTransform="rotate(90 -84485.888 16320.952) scale(120.007)"><stop offset="0" stop-color="#09859D"></stop><stop offset="1" stop-color="#2DDEC1"></stop></linearGradient><path id="mp1_5" d="M-361 222c-32.6 0-59 26.4-59 59s26.4 59 59 59 59-26.4 59-59-26.4-59-59-59zm0 113c-29.8 0-54-24.2-54-54s24.2-54 54-54 54 24.2 54 54-24.2 54-54 54z" class="mp1_5"></path></svg>