<svg xmlns:xlink="http://www.w3.org/1999/xlink" width="12" height="14" viewBox="0 0 12 14" fill="none" xmlns="http://www.w3.org/2000/svg">
<path d="M9.82106 7.43819C9.8028 5.6641 11.2675 4.81509 11.3324 4.77249C10.5098 3.57049 9.2297 3.40515 8.77223 3.38689C7.68383 3.27532 6.64616 4.02796 6.09233 4.02796C5.54052 4.02796 4.68644 3.40211 3.78266 3.41834C2.59385 3.4366 1.49937 4.11012 0.886703 5.17316C-0.347756 7.31546 0.570227 10.4883 1.77324 12.2279C2.36156 13.078 3.06349 14.0325 3.9835 13.999C4.87004 13.9635 5.20477 13.4249 6.27694 13.4249C7.3491 13.4249 7.65036 13.999 8.58762 13.9817C9.54211 13.9635 10.1457 13.1145 10.7289 12.2624C11.4045 11.2755 11.6824 10.3189 11.6996 10.2713C11.6773 10.2591 9.84033 9.55615 9.82106 7.43819Z" fill="#0957C3"></path>
<path d="M8.05809 2.23562C8.54599 1.64425 8.87667 0.820606 8.78639 0C8.08142 0.0284017 7.23038 0.467613 6.72423 1.05999C6.27081 1.58441 5.87623 2.42124 5.98173 3.22562C6.76683 3.28749 7.57019 2.82597 8.05809 2.23562Z" fill="#0957C3"></path>
</svg>