<svg width="40" height="40" viewBox="0 0 40 40" version="1.1" xmlns="http://www.w3.org/2000/svg" xmlns:xlink="http://www.w3.org/1999/xlink">
<g transform="translate(675 633)">
<use xlink:href="#go_top1" transform="matrix(6.12323e-17 -1 1 6.12323e-17 -663.816 -608.789)"></use>
<g>
<use xlink:href="#go_top2" transform="translate(-675 -633)"></use>
</g>
</g>
<defs>
<path id="go_top1" d="M 1.97367 -8.03094e-06L -1.60619e-05 2.10526L 6.3158 8.8158L -1.60619e-05 15.5263L 1.97367 17.6316L 10.2632 8.94738L 1.97367 -8.03094e-06Z"></path>
<path id="go_top2" d="M 20 2.63156C 29.6053 2.63156 37.3684 10.3947 37.3684 20C 37.3684 29.6053 29.6053 37.3684 20 37.3684C 10.3947 37.3684 2.63161 29.6053 2.63161 20C 2.63161 10.3947 10.5263 2.63156 20 2.63156ZM 20 -1.60619e-05C 8.94738 -1.60619e-05 3.21238e-05 8.94737 3.21238e-05 20C 3.21238e-05 31.0526 8.94738 40 20 40C 31.0526 40 40 31.0526 40 20C 40 8.94737 31.0526 -1.60619e-05 20 -1.60619e-05Z"></path>
<path id="go_top1" d="M 1.97367 -8.03094e-06L -1.60619e-05 2.10526L 6.3158 8.8158L -1.60619e-05 15.5263L 1.97367 17.6316L 10.2632 8.94738L 1.97367 -8.03094e-06Z"></path><path id="go_top2" d="M 20 2.63156C 29.6053 2.63156 37.3684 10.3947 37.3684 20C 37.3684 29.6053 29.6053 37.3684 20 37.3684C 10.3947 37.3684 2.63161 29.6053 2.63161 20C 2.63161 10.3947 10.5263 2.63156 20 2.63156ZM 20 -1.60619e-05C 8.94738 -1.60619e-05 3.21238e-05 8.94737 3.21238e-05 20C 3.21238e-05 31.0526 8.94738 40 20 40C 31.0526 40 40 31.0526 40 20C 40 8.94737 31.0526 -1.60619e-05 20 -1.60619e-05Z"></path></defs>
</svg>