<svg xmlns:xlink="http://www.w3.org/1999/xlink" class="i--user--favourites" width="25" height="25" xmlns="http://www.w3.org/2000/svg" x="0px" y="0px" viewBox="0 0 24 24">
<path class="st0" d="M24.1,9.2c-0.1-0.3-0.3-0.5-0.7-0.6L16,7.5l-3.3-6.7c-0.1-0.3-0.4-0.5-0.7-0.5s-0.6,0.2-0.7,0.5L8,7.6L0.5,8.7
	C0.2,8.7,0,8.9-0.1,9.2c-0.1,0.3,0,0.6,0.2,0.8l5.4,5.2l-1.2,7.4c0,0,0,0.1,0,0.1c0,0.3,0.1,0.5,0.3,0.7c0.1,0.1,0.3,0.2,0.5,0.2
	c0.1,0,0.3,0,0.4-0.1L12,20l6.6,3.5v0c0.1,0.1,0.2,0.1,0.4,0.1c0.5,0,0.8-0.4,0.8-0.8c0-0.1,0-0.1,0-0.2l-1.3-7.3l5.3-5.2
	C24.1,9.8,24.2,9.4,24.1,9.2z M17.1,14.4c-0.2,0.2-0.2,0.4-0.2,0.6c0,0,0,0.1,0,0.1l1.1,6.2l-5.5-2.9c-0.1-0.1-0.2-0.1-0.4-0.1
	s-0.3,0-0.4,0.1l-5.5,2.9l1-6.2c0,0,0-0.1,0-0.1c0-0.2-0.1-0.4-0.2-0.6L2.4,10l6.2-0.9c0.3,0,0.5-0.2,0.6-0.4L12,3l2.8,5.6
	c0.1,0.2,0.4,0.4,0.6,0.5l6.2,0.9L17.1,14.4z M6.9,14.4l-0.8,6.9l1-6.2c0,0,0-0.1,0-0.1C7.2,14.8,7.1,14.6,6.9,14.4z M6.9,14.4
	l-0.8,6.9l1-6.2c0,0,0-0.1,0-0.1C7.2,14.8,7.1,14.6,6.9,14.4z"></path>
</svg>